<?xml version="1.0" standalone="no"?>
<!DOCTYPE svg PUBLIC "-//W3C//DTD SVG 20010904//EN"
 "http://www.w3.org/TR/2001/REC-SVG-20010904/DTD/svg10.dtd">
<svg version="1.0" xmlns="http://www.w3.org/2000/svg"
 width="959.000000pt" height="959.000000pt" viewBox="0 0 959.000000 959.000000"
 preserveAspectRatio="xMidYMid meet">
<metadata>
Created by potrace 1.11, written by Peter Selinger 2001-2013
</metadata>
<g transform="translate(0.000000,959.000000) scale(0.100000,-0.100000)"
fill="#000000" stroke="none">
<path d="M3200 9368 c-139 -37 -306 -98 -320 -118 -3 -4 -16 -10 -30 -13 -26
-6 -61 -30 -88 -59 -9 -10 -22 -18 -29 -18 -7 0 -13 -5 -13 -11 0 -5 -4 -8 -9
-4 -6 3 -24 -13 -42 -35 -18 -22 -36 -40 -40 -40 -23 0 -107 -71 -159 -133
-33 -40 -66 -79 -73 -87 -23 -27 -68 -130 -72 -165 -1 -11 -10 -67 -19 -124
-10 -59 -16 -153 -16 -215 5 -329 1 -455 -13 -483 -27 -53 -40 -122 -34 -175
10 -79 51 -148 147 -247 87 -88 122 -112 189 -128 42 -11 48 -29 51 -140 3
-107 2 -113 -15 -113 -8 0 -15 -5 -15 -11 0 -5 5 -7 10 -4 13 8 49 -34 50 -58
0 -14 5 -17 20 -12 15 5 23 0 32 -19 6 -14 16 -26 22 -26 6 0 24 -15 41 -33
19 -21 48 -37 80 -46 156 -43 171 -49 139 -63 -16 -7 -16 -7 6 -6 14 0 36 -4
50 -9 30 -12 303 -5 308 8 2 5 18 9 36 9 87 0 120 11 151 51 17 21 36 38 43
39 6 0 12 8 12 18 1 15 2 15 16 -3 11 -16 17 -17 23 -7 5 8 40 17 82 23 132
16 164 20 189 25 43 10 110 36 110 44 0 8 -34 23 -79 35 l-23 7 5 142 c4 122
7 147 27 184 17 33 27 41 39 36 9 -4 36 -9 61 -12 41 -3 48 -1 77 31 65 71
126 160 145 209 22 60 36 211 21 230 -6 7 -16 30 -22 50 -7 20 -23 44 -36 52
-24 16 -24 18 -11 54 31 82 44 303 26 432 -12 78 -44 190 -65 225 -15 23 -32
77 -39 120 -6 37 -42 111 -59 122 -7 4 -27 28 -44 53 -17 25 -43 56 -57 69
-14 14 -26 32 -26 40 -1 20 -24 51 -37 51 -12 0 -26 37 -23 63 1 9 -7 20 -17
24 -10 3 -37 14 -60 24 -23 11 -45 19 -48 19 -4 0 -21 6 -38 14 -64 28 -96 35
-104 23 -4 -7 -9 -3 -13 13 -5 23 -12 26 -70 31 -36 3 -105 15 -155 26 -122
28 -154 31 -195 21z m-102 -86 l23 -7 -21 -22 c-11 -13 -25 -23 -31 -23 -5 0
-32 -24 -60 -52 -47 -49 -52 -51 -64 -34 -16 21 -9 46 12 46 8 0 24 11 35 25
11 14 25 24 32 22 6 -2 19 5 29 17 17 20 17 21 0 27 -16 7 -16 8 2 7 11 0 30
-3 43 -6z m-131 -63 c-8 -13 -20 -19 -35 -16 -18 4 -22 0 -20 -16 2 -16 -5
-23 -31 -30 -19 -5 -46 -17 -60 -28 -22 -18 -26 -18 -40 -5 -13 14 -13 17 2
34 9 10 17 24 17 30 0 7 9 12 19 12 11 0 22 4 25 9 3 4 17 6 31 3 14 -2 32 1
40 8 8 7 22 10 30 6 9 -3 15 0 15 10 0 8 4 12 10 9 6 -4 5 -13 -3 -26z m719
-28 c-3 -4 3 -16 14 -26 11 -10 20 -26 20 -37 0 -20 11 -23 27 -7 14 14 33 3
33 -20 0 -29 13 -33 31 -9 10 12 20 20 24 17 3 -4 8 -35 10 -70 3 -43 1 -59
-5 -49 -8 12 -10 9 -10 -12 0 -36 37 -59 56 -34 10 15 12 14 18 -10 9 -35 0
-58 -29 -74 -14 -7 -25 -19 -25 -27 0 -7 -7 -13 -15 -13 -9 0 -18 -7 -21 -15
-8 -20 -24 -19 -40 3 -13 16 -13 16 -14 -3 -1 -14 -5 -10 -16 14 -13 31 -13
40 3 83 9 26 21 48 25 48 4 0 8 10 8 23 0 17 -2 19 -9 8 -7 -11 -12 -4 -21 27
-11 42 -24 53 -33 30 -4 -10 -7 -10 -18 0 -19 18 -29 15 -29 -9 0 -11 -4 -17
-10 -14 -5 3 -10 19 -10 34 0 15 -6 33 -12 40 -11 10 -10 14 5 22 9 6 17 16
17 24 0 19 18 65 25 65 4 0 4 -4 1 -9z m-166 -53 c0 -5 -4 -8 -10 -8 -5 0 -13
-14 -18 -32 l-8 -32 -27 47 c-16 26 -25 51 -22 56 6 10 85 -19 85 -31z m-790
-44 c0 -8 -4 -12 -10 -9 -5 3 -10 10 -10 16 0 5 5 9 10 9 6 0 10 -7 10 -16z
m-63 -56 c-3 -8 -6 -5 -6 6 -1 11 2 17 5 13 3 -3 4 -12 1 -19z m1073 -263 c0
-8 -4 -15 -10 -15 -5 0 -10 7 -10 15 0 8 5 15 10 15 6 0 10 -7 10 -15z"/>
<path d="M3783 9025 c-3 -9 -3 -18 -1 -21 3 -3 8 4 11 16 6 23 -1 27 -10 5z"/>
<path d="M4170 8800 c0 -5 5 -10 11 -10 5 0 7 5 4 10 -3 6 -8 10 -11 10 -2 0
-4 -4 -4 -10z"/>
<path d="M1890 6430 c0 -22 -4 -40 -9 -40 -5 0 -11 -24 -15 -52 -17 -142 -29
-188 -48 -188 -14 0 -18 -8 -18 -38 0 -26 -6 -41 -20 -50 -11 -7 -20 -18 -20
-26 0 -7 -9 -16 -20 -19 -20 -5 -28 -27 -10 -27 6 0 10 -5 10 -12 0 -9 -3 -9
-12 0 -18 18 -28 14 -28 -12 0 -40 -12 -86 -21 -80 -5 3 -9 -10 -10 -28 0 -26
-2 -29 -8 -14 -7 18 -8 18 -14 2 -11 -27 -8 -96 3 -96 6 0 10 15 10 33 1 26 2
29 11 15 7 -12 6 -24 -1 -38 -9 -16 -7 -26 10 -49 23 -33 26 -56 6 -48 -7 3
-18 1 -24 -5 -7 -7 -12 -3 -17 11 -15 47 -37 13 -28 -43 3 -21 1 -42 -6 -50
-9 -11 -9 -19 1 -36 11 -17 11 -22 0 -29 -10 -6 -12 -22 -7 -62 4 -30 9 -68
10 -86 18 -203 59 -342 138 -460 16 -24 33 -43 38 -43 5 0 9 -7 9 -15 0 -8 9
-23 20 -32 11 -10 20 -22 20 -28 0 -6 16 -30 35 -52 19 -23 35 -46 35 -52 0
-10 39 -41 52 -41 5 0 8 9 8 19 0 11 5 21 11 23 9 3 9 17 0 56 -11 51 -10 53
24 101 33 45 35 54 31 103 -4 56 -8 72 -32 126 -19 44 -18 61 7 116 13 31 20
66 19 104 -1 101 0 109 15 122 18 15 21 84 3 78 -19 -7 -49 -53 -58 -89 l-8
-34 -1 40 c0 46 18 118 39 155 8 14 15 27 16 30 0 3 8 21 17 41 9 20 13 46 10
57 -3 13 -1 22 6 22 6 0 11 4 11 10 0 5 -6 7 -14 4 -19 -7 -28 22 -10 37 8 6
12 20 9 30 -4 10 -2 27 4 37 5 10 12 51 15 91 5 66 3 78 -20 117 -17 29 -33
44 -46 44 -18 0 -19 -4 -14 -34 8 -41 -7 -55 -33 -32 -19 17 -14 21 -72 -43
-30 -33 -39 -12 -28 63 11 69 16 79 34 72 7 -2 20 3 29 13 18 20 49 98 48 123
0 10 3 20 9 23 5 4 9 15 9 26 0 15 -7 19 -31 19 -26 0 -33 -5 -46 -40 -27 -67
-36 -48 -30 58 3 53 9 107 12 120 5 14 3 22 -4 22 -6 0 -11 -17 -11 -40z
m-230 -1241 c0 -6 -4 -7 -10 -4 -5 3 -10 11 -10 16 0 6 5 7 10 4 6 -3 10 -11
10 -16z"/>
<path d="M7221 6027 c-5 -14 -14 -28 -20 -31 -19 -12 25 -75 64 -90 11 -4 16
-4 12 0 -4 4 -2 13 5 21 6 7 8 16 4 20 -3 3 -6 0 -6 -7 0 -9 -6 -8 -18 6 -23
24 -22 37 3 41 95 13 97 14 79 34 -13 15 -25 18 -51 13 -20 -4 -39 -2 -48 6
-12 10 -16 8 -24 -13z"/>
<path d="M4714 6012 c-53 -44 -70 -104 -53 -188 11 -54 10 -69 -5 -117 -10
-31 -25 -62 -34 -69 -13 -11 -14 -11 -6 2 9 16 33 97 34 118 0 15 -36 16 -46
1 -3 -6 -22 -17 -40 -25 -19 -8 -34 -19 -34 -24 0 -6 -9 -10 -20 -10 -15 0
-22 -9 -27 -30 -4 -24 -10 -29 -24 -25 -11 4 -19 2 -19 -4 0 -6 5 -11 10 -11
6 0 10 -6 10 -14 0 -8 12 -23 26 -33 25 -19 25 -19 25 -165 0 -121 3 -156 20
-203 17 -48 18 -62 8 -98 -16 -59 -18 -214 -3 -262 30 -98 32 -110 17 -180
-14 -67 -13 -69 14 -132 16 -38 34 -63 43 -63 21 0 77 86 89 135 35 149 53
189 107 240 30 28 54 54 54 58 0 4 9 27 21 52 18 39 19 49 9 82 -16 48 -28 63
-50 63 -10 0 -20 6 -23 13 -3 8 -27 19 -54 26 -26 7 -66 17 -88 22 -49 12 -85
29 -85 41 0 5 10 13 23 18 117 49 173 83 168 101 -3 8 -6 33 -9 57 -3 27 -9
42 -18 42 -8 0 -14 -4 -14 -10 0 -5 -7 -10 -15 -10 -10 0 -15 9 -14 28 0 24 1
25 9 7 7 -15 9 -10 9 23 1 23 5 42 11 42 5 0 12 17 16 38 8 47 32 94 44 87 5
-3 7 8 5 24 -2 16 0 42 4 57 7 28 -1 112 -15 149 -4 11 -4 17 1 13 9 -8 35 36
35 58 0 18 -29 64 -50 81 -21 17 -41 16 -66 -5z m-210 -347 c-4 -8 -8 -15 -10
-15 -2 0 -4 7 -4 15 0 8 4 15 10 15 5 0 7 -7 4 -15z"/>
<path d="M7126 5993 c-6 -14 -5 -15 5 -6 7 7 10 15 7 18 -3 3 -9 -2 -12 -12z"/>
<path d="M7310 5970 c11 -20 30 -28 30 -12 0 11 -22 32 -32 32 -5 0 -4 -9 2
-20z"/>
<path d="M7740 5966 c0 -15 24 -28 34 -19 7 7 -13 33 -25 33 -5 0 -9 -6 -9
-14z"/>
<path d="M7166 5961 c-4 -7 -5 -15 -2 -18 9 -9 19 4 14 18 -4 11 -6 11 -12 0z"/>
<path d="M7686 5954 c-4 -10 -1 -14 6 -12 15 5 23 28 10 28 -5 0 -13 -7 -16
-16z"/>
<path d="M6605 5949 c-4 -5 1 -12 9 -15 16 -6 36 2 36 14 0 11 -39 12 -45 1z"/>
<path d="M7071 5931 c-29 -22 -21 -47 10 -30 18 9 20 8 17 -8 -5 -27 -52 -29
-77 -4 -22 22 -41 27 -41 11 0 -5 5 -10 10 -10 6 0 10 -7 10 -15 0 -9 12 -20
28 -26 l27 -10 -32 -30 c-37 -32 -40 -39 -18 -39 8 0 15 -7 15 -15 0 -12 5
-13 27 -4 19 7 29 7 31 0 5 -16 63 -14 61 2 -3 17 11 47 22 47 12 0 49 -33 49
-44 0 -5 -8 -2 -18 7 -22 20 -47 23 -35 5 14 -23 12 -39 -5 -45 -9 -4 -23 -14
-30 -22 -11 -14 -11 -14 -6 0 4 13 -3 18 -31 23 -21 4 -42 3 -49 -3 -9 -7 -16
-7 -24 1 -8 8 -15 6 -28 -6 -23 -23 -31 -11 -9 14 12 14 14 20 5 20 -7 0 -23
-11 -36 -25 -13 -14 -28 -25 -34 -25 -16 0 -12 27 5 34 8 3 15 12 15 19 0 22
-79 17 -86 -5 -3 -10 -2 -22 1 -28 4 -6 -4 -19 -17 -30 -24 -20 -54 -27 -43
-11 3 5 1 12 -5 16 -5 3 -10 -1 -10 -10 0 -8 7 -18 15 -21 23 -9 8 -23 -23
-20 -29 4 -31 13 -16 85 5 24 3 32 -5 27 -6 -4 -11 -16 -11 -27 0 -10 -4 -19
-10 -19 -5 0 -7 -7 -4 -15 4 -8 -1 -17 -10 -21 -26 -10 -18 -34 15 -48 24 -10
28 -15 16 -24 -10 -8 -17 -8 -24 -1 -13 13 -83 -6 -83 -22 0 -5 -6 -9 -13 -9
-9 0 -12 16 -12 54 l1 54 -24 -19 c-13 -10 -29 -15 -36 -11 -10 6 -20 8 -84
11 -13 0 -20 6 -17 11 3 6 2 10 -3 10 -5 0 -19 9 -32 20 -18 15 -26 17 -37 9
-15 -13 -28 -5 -28 18 0 9 -6 18 -13 21 -9 3 -12 -6 -10 -33 2 -35 -11 -54
-38 -55 -20 0 -42 -34 -43 -65 0 -16 -1 -42 -1 -57 -1 -46 -48 -47 -69 -2 -9
21 -14 23 -31 14 -20 -11 -61 2 -59 18 6 39 -20 72 -57 72 -25 0 -33 15 -11
23 16 5 -9 37 -31 37 -23 0 -77 61 -62 70 8 5 7 9 -5 14 -23 9 -25 8 -25 -9 0
-8 -4 -15 -10 -15 -5 0 -10 5 -10 10 0 16 -30 12 -36 -5 -11 -29 -27 -15 -21
19 4 25 1 37 -14 49 -10 9 -20 13 -22 9 -7 -11 1 -85 11 -107 51 -116 105
-205 124 -205 4 0 24 -16 45 -35 21 -19 48 -35 59 -35 24 0 94 -52 110 -82 6
-11 9 -31 6 -45 -4 -23 25 -93 39 -93 9 0 23 -50 20 -73 -1 -9 7 -30 18 -46
12 -16 21 -34 21 -41 0 -11 57 -90 93 -130 8 -8 22 -30 32 -47 22 -37 95 -93
122 -93 10 0 32 14 50 30 39 36 43 37 43 5 0 -14 -4 -25 -9 -25 -5 0 -11 -9
-14 -20 -3 -11 -19 -28 -36 -37 -17 -10 -31 -26 -31 -35 0 -10 -4 -18 -9 -18
-5 0 -11 -10 -14 -22 -5 -18 -8 -19 -22 -8 -13 11 -19 10 -34 -7 -11 -11 -21
-28 -23 -39 -2 -10 -12 -20 -23 -22 -46 -7 -109 -52 -73 -52 7 0 1 -11 -12
-23 -14 -13 -33 -22 -42 -19 -13 3 -18 -2 -18 -17 0 -11 6 -21 13 -21 19 0 57
29 57 44 0 16 33 27 50 16 9 -6 7 -10 -6 -18 -17 -10 -16 -11 9 -23 23 -10 29
-10 40 3 14 18 74 31 82 18 8 -13 37 0 31 15 -3 8 2 11 15 8 20 -6 26 -28 9
-38 -22 -14 -8 -23 16 -10 23 12 29 11 43 -2 18 -19 24 -46 8 -40 -6 2 -17 -1
-23 -7 -15 -14 28 -36 56 -29 23 6 25 -4 6 -29 -10 -14 -15 -15 -26 -5 -10 9
-13 9 -17 0 -6 -16 -24 -17 -20 -2 1 6 -4 14 -10 16 -7 3 -13 -2 -13 -10 0 -8
-7 -20 -15 -27 -9 -8 -15 -9 -15 -2 0 6 4 13 9 16 13 9 1 46 -15 46 -8 0 -14
-9 -14 -20 0 -24 -16 -26 -37 -4 -12 11 -13 18 -4 27 15 15 14 37 -3 37 -16 0
-29 -27 -20 -41 3 -5 -4 -9 -15 -9 -12 0 -21 -4 -21 -10 0 -5 0 -13 0 -17 0
-5 10 -8 23 -8 13 0 22 -6 22 -15 0 -22 -45 -14 -62 10 -17 25 -29 25 -37 3
-3 -10 -12 -28 -19 -40 l-13 -22 -18 30 c-9 16 -15 38 -11 48 3 10 1 31 -5 45
-8 23 -14 26 -33 20 -12 -5 -37 -7 -54 -6 -40 2 -42 -10 -6 -34 16 -10 23 -19
15 -22 -6 -2 -12 -8 -12 -14 0 -15 -31 -37 -52 -38 -10 0 -18 -4 -18 -10 0 -5
-7 -10 -15 -10 -8 0 -15 -4 -15 -10 0 -18 -28 -11 -43 10 -12 17 -21 20 -56
14 -27 -4 -46 -14 -52 -27 -7 -12 -7 -17 -1 -13 6 3 16 0 24 -7 7 -7 21 -16
31 -20 25 -9 21 -34 -8 -41 -13 -3 -29 -15 -35 -25 -5 -11 -26 -25 -45 -31
-27 -9 -36 -19 -45 -48 -13 -49 -12 -63 5 -86 8 -11 15 -40 15 -65 1 -25 7
-64 15 -86 8 -22 15 -51 15 -65 0 -14 9 -40 20 -58 11 -18 20 -39 20 -46 0 -7
14 -30 30 -51 17 -21 30 -44 30 -52 0 -8 5 -13 12 -11 8 3 14 34 16 88 4 97
35 187 82 235 16 16 32 42 35 58 11 41 22 41 21 -1 -2 -47 -11 -62 -39 -62
-16 0 -18 -3 -9 -9 11 -7 11 -9 -2 -14 -24 -10 -8 -36 21 -34 14 1 28 -4 31
-12 3 -10 -3 -12 -24 -7 -45 9 -55 -3 -51 -66 2 -30 7 -60 11 -66 7 -12 0 -16
-18 -13 -5 1 -16 -1 -24 -4 -13 -5 -11 -9 6 -26 12 -11 22 -25 22 -31 0 -7 -6
-4 -13 7 -8 10 -19 15 -25 11 -15 -9 -16 -53 -2 -61 6 -3 10 -1 10 4 0 6 5 11
12 11 6 0 8 -3 5 -7 -4 -3 0 -15 10 -25 22 -25 8 -36 -17 -13 -16 14 -20 15
-20 4 0 -8 5 -20 12 -27 8 -8 8 -12 1 -12 -6 0 -13 -9 -16 -20 -3 -11 -13 -20
-22 -20 -14 0 -16 6 -11 34 4 20 2 37 -3 41 -24 14 -94 -45 -84 -71 3 -8 0
-14 -6 -14 -6 0 -11 -4 -11 -10 0 -12 42 -55 53 -55 4 0 11 -5 15 -12 12 -19
55 23 49 47 -6 25 9 36 18 12 6 -16 7 -16 16 1 6 9 15 15 21 11 6 -4 8 1 3 15
-3 11 -2 21 3 21 6 0 9 -13 8 -30 -1 -16 0 -27 2 -25 3 2 13 0 23 -5 12 -7 20
-7 24 0 4 6 11 8 16 4 15 -9 0 -24 -26 -24 -23 0 -45 -32 -26 -38 6 -2 11 -12
11 -22 0 -10 8 -21 18 -23 12 -3 10 -5 -7 -6 -13 0 -30 -9 -37 -18 -19 -26
-17 -35 5 -24 15 9 20 7 24 -10 5 -17 2 -20 -13 -16 -20 5 -21 -16 -2 -35 9
-9 12 -8 12 5 0 30 17 18 18 -13 0 -16 -3 -30 -8 -30 -14 0 -20 -31 -10 -51 6
-10 20 -19 30 -19 22 0 26 -20 8 -38 -9 -9 -8 -15 6 -25 15 -11 16 -18 7 -34
-8 -17 -7 -22 5 -27 12 -4 15 -2 10 9 -7 19 36 31 61 16 16 -9 16 -10 -6 -11
-18 0 -22 -4 -18 -19 2 -10 0 -26 -5 -35 -7 -13 -5 -23 7 -36 9 -10 15 -29 13
-42 -4 -28 -36 -37 -44 -11 -3 10 -10 26 -15 36 -5 10 -7 22 -5 26 3 5 -3 19
-15 32 -11 12 -17 29 -15 36 3 8 -1 16 -9 19 -8 4 -15 12 -15 19 0 15 -44 29
-48 15 -2 -6 -17 -10 -34 -10 -25 0 -28 -3 -23 -20 4 -11 2 -20 -4 -20 -6 0
-11 -9 -11 -20 0 -12 5 -17 14 -14 28 11 26 -15 -3 -32 l-29 -17 32 -32 c17
-17 39 -34 49 -38 39 -15 26 -74 -14 -62 -13 4 -17 2 -14 -7 9 -23 -34 -39
-106 -40 -97 -1 -96 8 1 17 71 6 79 9 63 21 -20 15 -37 18 -29 6 3 -5 -213 -7
-480 -5 -267 3 -497 2 -511 -2 -21 -5 -24 -10 -19 -30 6 -22 3 -25 -22 -25
-15 0 -32 4 -38 9 -5 5 -26 12 -46 15 -32 6 -38 4 -38 -10 0 -12 -3 -14 -13
-5 -10 7 -17 7 -24 0 -16 -16 -33 -2 -33 27 0 31 35 34 43 3 6 -23 27 -17 27
7 0 9 11 14 34 14 19 0 37 4 40 9 3 5 -1 96 -8 202 -8 107 -17 282 -21 389 -4
143 -11 217 -26 280 -32 132 -46 175 -58 172 -6 -1 -11 2 -11 8 0 5 4 10 10
10 5 0 0 20 -12 45 -14 29 -29 45 -40 45 -12 0 -18 8 -18 25 0 19 -4 23 -17
18 -12 -5 -15 -2 -10 9 7 21 -21 46 -60 54 -27 5 -31 2 -43 -26 -8 -18 -9 -35
-4 -38 30 -22 38 -61 39 -177 0 -108 4 -128 30 -200 29 -76 30 -87 29 -230 -2
-198 -32 -418 -69 -500 -21 -46 -33 -26 -14 21 7 16 13 40 15 54 1 14 5 43 9
65 21 128 6 600 -19 592 -7 -2 -10 -32 -9 -77 1 -46 -2 -69 -7 -60 -5 8 -12
12 -15 8 -11 -11 -8 -89 4 -101 8 -8 11 -1 11 29 0 28 3 35 10 24 9 -15 3 -61
-10 -70 -13 -9 -18 -100 -6 -100 7 0 6 -3 -2 -9 -7 -4 -19 -51 -27 -107 -15
-107 -44 -230 -60 -254 -6 -8 -19 -33 -30 -55 -22 -44 -106 -99 -137 -89 -10
3 -32 -1 -50 -10 -18 -8 -49 -17 -68 -20 -19 -3 -50 -9 -67 -12 -28 -5 -33 -3
-33 15 0 14 -5 19 -15 15 -8 -3 -21 1 -30 9 -8 8 -20 18 -27 20 -9 4 -10 8 -2
14 19 15 35 70 32 109 -2 32 -7 39 -25 39 -11 0 -25 3 -29 7 -4 5 -15 8 -25 8
-10 0 -20 11 -24 27 -3 15 -9 22 -13 16 -4 -6 -24 -14 -45 -18 -20 -4 -37 -12
-37 -18 0 -6 -2 -8 -5 -5 -11 11 8 38 26 38 38 0 17 29 -41 57 -42 20 -60 34
-60 47 0 18 1 18 18 3 23 -21 75 -22 92 -2 10 13 9 15 -9 15 -12 0 -21 6 -21
15 0 11 -11 15 -40 15 -29 0 -40 4 -40 15 0 11 11 15 40 15 41 0 57 21 25 34
-24 9 -18 36 8 36 13 0 31 6 40 13 15 11 15 14 -2 36 -15 20 -21 22 -39 12
-12 -6 -26 -20 -32 -31 -6 -11 -17 -20 -25 -20 -18 0 -20 17 -4 22 9 3 9 14
-1 42 -9 29 -16 36 -29 31 -33 -14 -88 -17 -95 -6 -4 6 -21 11 -38 11 -16 0
-42 9 -56 21 -20 16 -28 17 -30 7 -2 -10 -31 -13 -135 -11 -164 2 -167 2 -142
13 11 5 45 9 75 9 96 2 125 18 73 40 -16 7 -39 27 -53 46 -14 19 -33 35 -42
35 -10 0 -18 5 -18 11 0 8 13 9 40 5 22 -3 40 -2 40 3 0 4 -18 11 -40 15 -45
7 -50 17 -17 39 19 14 20 18 7 26 -17 12 -51 4 -62 -13 -4 -6 -5 -28 -1 -48 5
-36 4 -38 -20 -38 -14 0 -29 -5 -32 -11 -5 -6 -31 -8 -77 -3 -43 4 -73 3 -77
-3 -8 -13 -101 -24 -101 -12 0 11 -11 8 95 24 55 7 75 13 52 14 -41 1 -60 14
-71 49 -6 18 -15 22 -45 22 -28 0 -42 6 -53 22 -8 12 -19 18 -26 14 -17 -10
-15 -36 2 -36 8 0 16 -6 19 -14 3 -8 16 -16 28 -18 21 -3 48 -32 39 -42 -3 -2
-24 0 -46 6 -47 13 -75 -2 -66 -34 6 -23 1 -23 -43 2 -20 11 -47 20 -60 20
-22 0 -25 4 -25 38 0 46 24 72 64 72 16 0 25 4 21 10 -4 6 7 10 24 10 17 0 31
4 31 10 0 6 8 6 23 0 12 -5 48 -12 80 -15 40 -5 57 -11 57 -21 0 -8 -5 -14
-12 -14 -6 0 -9 -2 -6 -5 3 -3 17 0 32 6 19 9 32 9 50 1 37 -16 81 -1 82 29 1
13 2 29 3 36 1 15 39 5 43 -12 2 -9 9 -10 28 -2 l25 11 -28 4 c-21 2 -31 11
-39 33 -9 25 -12 27 -25 14 -19 -20 -35 -19 -80 4 -26 14 -61 20 -113 22 -88
2 -140 8 -140 18 0 9 193 7 207 -2 6 -4 18 2 27 12 15 17 16 19 1 25 -9 3 -26
6 -38 6 l-22 1 23 12 c20 12 14 14 -61 25 -85 14 -117 10 -117 -13 0 -17 -34
-28 -60 -20 -33 10 -25 36 8 29 18 -4 34 -1 43 8 26 26 60 40 84 34 13 -3 34
-2 47 3 22 8 22 9 -10 15 -18 4 -30 12 -26 17 8 13 51 11 110 -5 40 -11 60
-11 88 -2 61 19 40 28 -44 21 -77 -7 -80 -6 -80 14 0 25 -6 25 -40 6 -35 -20
-41 -19 -79 15 -18 17 -49 37 -69 46 -33 13 -38 13 -48 -1 -12 -16 -74 -21
-74 -6 0 5 -14 14 -30 21 -23 9 -33 10 -44 1 -11 -9 -21 -5 -47 19 -37 33 -49
37 -49 15 0 -8 -6 -15 -12 -15 -22 0 -41 17 -34 29 4 6 1 14 -7 17 -9 3 -18
16 -21 29 -6 25 -19 31 -81 38 -22 2 -32 2 -23 0 35 -9 17 -20 -40 -26 -61 -7
-102 -1 -102 14 0 5 -16 9 -35 9 -33 0 -34 -1 -23 -20 11 -17 10 -22 -1 -29
-9 -6 -21 -1 -36 17 -23 27 -23 27 -45 7 -12 -11 -19 -27 -17 -37 4 -13 -1
-18 -15 -18 -16 0 -19 5 -15 21 4 13 1 18 -6 15 -7 -3 -20 -9 -30 -12 -21 -8
-23 -40 -2 -48 8 -3 15 -16 15 -28 1 -13 7 -34 15 -48 12 -22 11 -27 -2 -42
-24 -27 -50 -22 -61 11 -6 16 -22 42 -36 57 -14 16 -32 37 -39 47 -11 16 -14
15 -45 -12 -39 -36 -97 -142 -123 -226 -35 -115 -41 -196 -29 -400 7 -104 10
-274 8 -378 l-3 -187 95 -1 c52 0 118 -4 145 -8 40 -6 22 -9 -88 -12 -77 -2
-141 -1 -144 4 -2 4 -13 7 -23 7 -10 0 -20 4 -22 9 -3 8 -372 24 -843 36 -121
3 -312 10 -425 15 -113 5 -251 10 -307 10 l-103 0 0 -35 c0 -34 1 -35 40 -35
22 0 40 5 40 10 0 6 18 10 40 10 34 0 40 -3 40 -21 0 -20 -3 -21 -80 -14 l-80
7 0 -39 0 -40 114 -12 c63 -7 118 -11 123 -8 4 3 26 1 48 -3 29 -6 6 -8 -82
-9 -76 -1 -123 3 -123 9 0 6 -18 10 -40 10 l-40 0 0 -79 0 -78 78 -6 c42 -3
235 -11 427 -16 193 -6 449 -16 570 -21 121 -6 283 -11 360 -11 77 -1 185 -4
240 -8 l99 -6 9 -35 c32 -124 112 -386 136 -445 15 -38 54 -118 85 -177 32
-61 65 -140 76 -185 11 -43 42 -125 68 -183 l47 -105 -1 -135 c0 -74 -2 -200
-4 -280 -3 -136 -1 -149 23 -219 15 -41 27 -84 27 -96 0 -12 12 -38 28 -58 35
-47 101 -70 208 -73 45 -1 86 -4 91 -7 5 -3 28 3 52 14 24 10 51 19 61 19 10
0 31 11 47 24 19 16 41 24 67 24 49 0 84 26 113 83 20 39 22 59 23 169 0 138
-6 168 -54 273 -41 90 -62 157 -70 226 -4 29 -16 72 -26 95 -11 22 -29 90 -39
149 -11 60 -25 115 -32 123 -7 9 -16 50 -20 92 -4 42 -14 147 -22 232 -9 102
-12 206 -8 305 l6 150 75 0 c461 -3 1202 -20 1207 -28 11 -19 42 -303 43 -392
0 -49 -5 -139 -11 -200 -6 -60 -12 -153 -13 -206 -1 -81 -5 -100 -23 -123 -12
-15 -25 -41 -28 -59 -11 -55 -46 -148 -92 -247 l-45 -95 -2 -128 -1 -128 43
-41 c39 -36 48 -40 82 -35 35 4 42 1 96 -50 57 -53 60 -55 103 -49 31 4 61 0
106 -16 63 -21 63 -21 101 -1 25 13 46 35 63 68 14 28 28 52 31 55 45 42 58
106 66 325 2 61 9 134 15 163 10 50 53 166 69 187 4 6 15 42 25 80 26 103 53
191 64 212 53 96 183 488 207 625 3 21 11 41 18 46 6 5 241 12 521 15 281 4
714 12 964 18 249 6 471 9 492 7 35 -3 39 -1 39 19 0 30 19 29 48 -1 27 -29
28 -40 2 -33 -25 6 -36 -9 -19 -29 10 -13 14 -12 30 2 17 16 19 16 25 -1 4
-10 1 -21 -7 -26 -24 -16 11 -30 59 -23 25 4 48 2 55 -5 10 -7 24 -7 51 0 21
6 47 8 58 6 12 -3 23 2 31 13 7 13 15 16 23 10 7 -7 22 -5 41 5 36 18 51 63
24 73 -22 8 -60 49 -53 57 4 3 -6 2 -20 -4 -29 -11 -46 0 -25 17 6 5 29 12 49
16 31 6 37 4 43 -14 3 -11 10 -20 15 -20 5 0 7 -7 4 -15 -6 -15 5 -19 36 -15
10 1 9 -3 -5 -14 -16 -12 -17 -15 -4 -16 8 0 20 5 26 11 8 8 107 14 295 20
496 14 877 28 1093 39 262 13 689 30 773 30 l62 0 0 76 0 77 -122 -7 c-68 -3
-238 -10 -378 -16 -140 -5 -293 -13 -340 -16 -100 -8 -853 -31 -859 -27 -10 7
10 14 58 22 32 5 51 4 51 -2 0 -6 37 -7 103 -3 56 4 167 9 247 12 80 4 147 8
149 10 17 16 -64 20 -241 10 -85 -4 -138 -4 -142 2 -6 9 61 21 109 20 53 -1
255 26 255 35 0 6 -24 7 -65 3 -35 -4 -115 -9 -177 -12 -62 -3 -119 -7 -127
-10 -19 -6 -191 7 -191 15 0 15 94 61 125 61 19 0 35 5 35 10 0 6 -18 10 -40
10 -53 0 -52 16 8 70 26 23 42 45 36 47 -15 5 5 51 24 55 17 4 -23 48 -43 48
-20 0 -19 -19 0 -26 19 -8 19 -21 0 -41 -20 -19 -32 -9 -15 12 11 13 10 18 -8
31 -27 19 -29 44 -3 44 13 0 21 8 23 23 2 12 9 21 17 19 8 -2 21 0 30 3 13 5
12 9 -9 25 l-25 20 27 0 c17 0 31 8 38 20 6 11 8 20 4 20 -3 0 -2 6 4 13 17
20 10 179 -9 200 -9 10 -19 32 -23 48 -7 34 -26 39 -27 7 0 -13 -2 -34 -3 -48
-2 -14 -7 -63 -11 -110 -4 -47 -11 -91 -17 -97 -6 -7 -7 -24 -4 -37 5 -20 -1
-32 -26 -55 -18 -17 -41 -34 -51 -37 -10 -3 -16 -12 -14 -19 3 -7 1 -17 -4
-22 -5 -5 -10 -22 -11 -37 -2 -16 -8 -31 -15 -33 -7 -3 -13 -17 -13 -32 0 -14
-11 -48 -25 -76 -13 -27 -25 -60 -25 -73 0 -22 -21 -52 -35 -52 -4 0 -5 7 -2
14 4 10 1 13 -9 9 -13 -5 -15 2 -10 47 6 52 6 52 -20 46 -17 -5 -23 -3 -19 4
3 5 12 10 20 10 7 0 15 7 19 15 4 11 -1 15 -19 15 -19 0 -25 5 -25 23 0 29
-11 44 -40 56 -23 10 -22 10 9 7 18 -3 44 -14 56 -26 14 -13 25 -17 29 -11 4
5 2 12 -4 16 -5 3 -10 14 -10 23 1 16 1 16 13 0 12 -15 14 -15 24 1 12 20 0
41 -22 41 -6 0 -22 11 -35 25 -18 19 -20 25 -8 25 9 0 21 -7 28 -15 7 -8 16
-12 21 -9 5 3 9 0 9 -5 0 -6 7 -11 15 -11 20 0 19 12 -5 38 -26 28 -26 52 -1
45 16 -4 19 -1 14 16 -4 17 -13 21 -45 21 -35 0 -39 2 -33 21 5 15 2 22 -14
26 -12 3 -21 9 -21 14 0 15 15 10 40 -13 29 -27 43 -30 67 -13 16 12 16 14 -7
39 -14 14 -31 26 -39 26 -11 0 -11 3 -1 15 8 9 8 15 2 15 -6 0 -23 5 -39 11
-25 10 -26 12 -8 18 10 4 37 3 58 -2 21 -5 41 -7 45 -3 12 13 -15 41 -44 44
-16 2 -33 10 -37 18 -4 8 -19 14 -32 14 -13 0 -27 5 -30 10 -4 7 2 9 19 4 19
-4 26 -2 26 9 0 20 -23 28 -60 20 -26 -5 -30 -3 -30 16 0 13 6 21 16 21 14 0
14 -3 4 -15 -15 -18 -3 -19 36 -5 21 8 24 14 16 22 -17 17 -15 33 3 18 8 -7
15 -21 15 -31 0 -12 11 -24 26 -30 32 -11 40 -7 19 11 -19 16 -19 30 0 30 8 0
15 -4 15 -10 0 -5 11 -10 25 -10 14 0 25 4 25 8 0 5 -11 14 -25 20 -14 6 -25
18 -25 25 0 7 -9 23 -21 36 -27 29 -19 37 20 16 31 -16 40 -30 21 -37 -6 -2 7
-4 30 -4 42 -1 52 17 14 25 -25 5 -97 78 -89 91 3 5 2 10 -3 10 -10 0 -26 -29
-24 -42 1 -5 -8 -8 -19 -8 -19 0 -20 2 -8 16 12 15 11 16 -6 11 -13 -5 -30 2
-50 18 -16 14 -22 22 -12 19 12 -4 17 -1 17 11 0 12 6 16 20 12 31 -8 34 11 5
25 -25 11 -25 13 -9 25 10 7 29 13 43 13 l26 0 -25 13 c-36 19 -118 29 -126
16 -3 -6 -12 -8 -20 -5 -8 3 -14 1 -14 -4 0 -14 -31 -12 -63 3 -31 14 -34 24
-9 30 9 2 -4 7 -30 11 -79 13 -59 34 45 45 4 1 7 8 7 17 0 8 -4 13 -9 10 -5
-4 -17 -3 -26 0 -14 6 -12 9 12 19 17 7 49 16 72 20 32 5 41 11 37 22 -3 8 -6
18 -6 22 0 12 -64 0 -82 -16 -9 -8 -21 -12 -27 -9 -5 4 -12 2 -16 -4 -3 -5
-19 -10 -35 -10 -23 0 -28 4 -27 20 1 22 8 25 23 10 11 -11 54 -2 54 11 0 5 7
6 16 2 10 -4 20 0 26 10 5 10 16 17 23 17 8 0 15 5 15 10 0 15 -26 12 -39 -4
-18 -21 -56 -27 -88 -15 l-28 11 25 11 25 10 -30 6 c-20 4 -31 2 -33 -6 -4
-15 -32 -18 -32 -3 0 6 -5 10 -11 10 -6 0 -9 -6 -6 -14 5 -12 -2 -13 -31 -9
-44 7 -46 8 -37 22 3 6 17 11 31 11 14 0 23 4 20 8 -5 9 -26 8 -98 -4 -29 -5
-38 -3 -38 8 0 8 17 20 38 27 20 8 43 16 50 18 6 3 12 -2 12 -11 0 -9 5 -16
10 -16 6 0 10 6 10 14 0 15 53 26 135 26 59 0 104 11 105 25 0 6 14 15 30 20
51 17 38 29 -34 31 -38 2 -76 6 -85 10 -15 6 -37 9 -99 13 -14 0 -20 5 -17 12
5 6 26 8 60 4 34 -5 55 -3 59 4 5 7 -2 11 -18 11 -14 0 -26 5 -26 10 0 6 -24
10 -54 10 -52 0 -81 12 -54 23 7 3 -8 6 -34 6 -51 1 -78 9 -78 22 0 5 10 9 23
9 20 1 21 2 5 14 -10 7 -18 18 -18 24 0 15 72 3 86 -14 8 -10 22 -12 43 -8 17
4 57 2 89 -4 119 -23 125 -23 113 -8 -16 19 2 30 37 21 l27 -7 -24 26 c-14 15
-38 26 -60 29 -31 3 -33 5 -13 12 41 14 26 30 -25 25 -17 -1 -21 3 -17 14 7
17 24 20 62 10 13 -4 21 -12 18 -19 -6 -17 13 -35 30 -28 8 3 14 -1 14 -11 0
-9 8 -16 21 -16 11 0 18 -4 15 -9 -3 -4 6 -13 19 -19 14 -7 25 -18 25 -27 0
-8 6 -15 13 -15 14 0 77 -57 77 -70 0 -4 21 -30 48 -57 26 -26 58 -70 72 -98
14 -27 27 -52 30 -55 12 -12 30 -51 30 -65 0 -8 5 -15 10 -15 6 0 10 -11 10
-23 0 -13 7 -38 16 -55 18 -38 30 -104 18 -101 -22 4 -21 -3 2 -26 16 -16 23
-32 20 -42 -4 -8 -1 -22 5 -30 7 -8 13 -35 13 -61 1 -26 5 -53 9 -59 5 -7 5
-17 2 -23 -9 -15 1 -12 58 14 53 24 117 88 172 171 15 22 33 45 42 52 8 6 15
26 16 45 2 20 7 32 15 30 15 -3 16 30 1 45 -8 8 -8 17 1 33 15 28 9 33 -24 20
-38 -14 -46 -13 -46 9 0 14 5 18 20 14 14 -4 20 0 20 11 0 10 -7 17 -17 15
-32 -3 -37 1 -19 14 22 16 11 51 -15 44 -19 -5 -17 14 5 42 9 11 12 8 16 -15
4 -21 11 -29 25 -29 27 0 33 41 7 47 -15 4 -18 12 -15 30 5 27 -22 47 -40 29
-5 -5 -36 -6 -69 -3 -47 4 -59 2 -53 -7 5 -9 1 -12 -15 -9 -31 4 -50 35 -30
48 13 9 13 11 0 20 -19 12 -37 13 -42 0 -1 -5 -9 -6 -15 -2 -10 7 -10 12 1 28
13 16 18 17 35 7 12 -7 28 -13 36 -13 8 0 15 -7 15 -15 0 -20 32 -35 77 -34
l38 0 -35 17 c-41 20 -60 36 -60 51 0 6 -13 11 -30 11 -32 0 -40 20 -20 50 8
12 10 11 10 -7 0 -26 6 -28 24 -10 16 15 7 43 -24 75 -17 18 -29 22 -49 17
-25 -6 -25 -6 -6 9 11 8 26 16 33 16 24 0 12 20 -13 20 -14 0 -25 6 -25 13 0
8 -15 14 -42 16 -53 3 -70 17 -44 36 22 16 14 35 -13 28 -10 -3 -22 0 -25 6
-4 6 -19 11 -33 11 -19 0 -23 3 -15 13 5 7 6 21 1 32 -4 11 -8 14 -8 6 -1 -21
-31 7 -31 30 0 10 -4 21 -10 24 -5 3 -10 15 -10 26 0 12 -7 19 -20 19 -22 0
-27 -16 -7 -23 6 -2 9 -8 5 -12 -4 -4 -15 -4 -25 0 -10 5 -25 9 -33 9 -18 1
-26 34 -8 33 31 -1 48 4 48 13 0 6 -6 10 -14 10 -29 0 -24 16 21 70 24 30 57
70 71 89 15 18 37 45 50 59 13 15 26 39 29 54 3 15 11 28 18 28 13 0 80 128
89 172 6 26 41 68 57 68 4 0 11 -4 14 -10 8 -13 89 -3 133 16 97 43 168 78
174 87 3 6 4 16 1 24 -3 8 2 13 16 13 12 0 21 6 21 15 0 8 6 15 13 15 12 0 54
77 46 84 -12 9 -79 -8 -79 -20 0 -18 -51 -19 -69 -1 -11 10 -13 9 -8 -5 4 -11
-2 -25 -16 -38 l-21 -21 -8 21 c-9 23 -28 27 -28 5 0 -8 -5 -15 -12 -15 -6 0
-1 -9 12 -20 26 -22 22 -32 -16 -37 -22 -3 -25 -1 -19 18 4 12 3 20 -1 17 -5
-2 -22 -10 -37 -18 -24 -11 -30 -12 -37 0 -6 9 -20 11 -49 6 -33 -5 -41 -3
-41 9 0 14 12 20 33 16 10 -2 -24 62 -35 67 -12 5 -10 40 2 47 20 12 10 35
-15 35 -14 0 -25 5 -25 11 0 20 -45 54 -66 51 -17 -2 -21 3 -22 29 -1 37 -7
45 -24 31 -17 -13 -60 -18 -75 -9 -18 11 -16 27 2 27 8 0 15 7 15 15 0 12 -4
13 -19 4 -14 -9 -26 -9 -52 0 -30 10 -35 9 -49 -8 -8 -11 -23 -19 -32 -18 -30
5 -32 16 -4 23 14 3 26 10 26 15 0 5 7 9 15 9 14 0 18 10 13 27 -2 4 -7 8 -13
8 -5 1 -23 6 -38 13 -16 7 -34 12 -42 12 -8 0 -17 5 -20 10 -3 6 -18 10 -32
10 -21 0 -23 3 -14 14 9 10 8 15 -4 19 -9 4 -19 -2 -26 -16 -12 -21 -12 -21
-21 -2 -7 17 -8 16 -5 -6 4 -30 -18 -49 -59 -49 -18 0 -25 -4 -21 -14 3 -8 -1
-17 -9 -20 -17 -7 -19 -32 -1 -40 8 -3 7 -8 -5 -16 -10 -6 -18 -18 -18 -25 0
-17 -16 -20 -25 -5 -9 15 -25 12 -25 -5 0 -8 6 -15 13 -15 6 0 12 -11 12 -25
0 -46 -31 -20 -37 30 -3 26 -7 30 -33 30 -25 0 -30 -4 -33 -27 -2 -16 -7 -28
-12 -28 -13 0 -24 21 -14 29 16 11 35 52 29 61 -9 15 -25 12 -25 -5 0 -8 -9
-19 -20 -25 -17 -9 -20 -8 -20 10 0 15 -5 20 -17 18 -10 -2 -17 -9 -16 -15 1
-6 -9 -10 -22 -9 -30 1 -32 16 -5 36 11 8 20 17 20 21 0 4 -9 9 -20 12 -26 7
-26 27 -1 27 11 0 23 4 26 10 4 6 17 4 35 -5 33 -17 54 -20 45 -5 -3 6 -2 10
4 10 5 0 11 -5 13 -12 3 -7 12 -9 24 -4 18 7 18 8 -5 27 -24 20 -67 27 -56 8
4 -5 -10 -1 -31 10 -46 25 -54 26 -54 6 0 -11 -8 -13 -32 -8 -62 11 -83 50
-23 40 32 -5 35 -3 35 17 0 26 -22 36 -75 36 -17 0 -35 4 -40 9 -6 6 -19 3
-34 -8z m55 -76 c-3 -8 1 -18 9 -22 10 -6 11 -13 5 -23 -7 -12 -12 -12 -21 -3
-18 18 -18 63 -1 63 8 0 12 -6 8 -15z m-26 -79 c0 -4 -7 -3 -16 5 -12 10 -20
10 -35 1 -24 -15 -25 -4 -2 13 13 10 21 10 35 1 10 -6 18 -15 18 -20z m558
-24 c2 -7 -5 -12 -17 -12 -14 0 -19 5 -14 15 6 17 25 15 31 -3z m72 -12 c0 -5
-2 -10 -4 -10 -3 0 -8 5 -11 10 -3 6 -1 10 4 10 6 0 11 -4 11 -10z m-145 -10
c3 -5 -1 -10 -10 -10 -9 0 -13 5 -10 10 3 6 8 10 10 10 2 0 7 -4 10 -10z m105
-10 c0 -5 -10 -10 -22 -9 -22 0 -22 1 -3 9 11 5 21 9 23 9 1 1 2 -3 2 -9z
m-1780 -35 c0 -12 -5 -12 -25 -3 -25 11 -30 19 -19 31 10 10 44 -12 44 -28z
m1170 4 c0 -5 -8 -9 -17 -9 -15 0 -16 -2 -3 -10 8 -5 10 -10 4 -10 -19 0 -24
12 -13 32 10 18 29 17 29 -3z m89 -1 c-4 -34 1 -40 32 -33 29 7 31 6 24 -16
-12 -37 -45 -53 -45 -23 0 10 -6 14 -15 10 -10 -4 -15 1 -15 14 0 11 -7 20
-15 20 -19 0 -21 -56 -2 -63 7 -4 6 -6 -5 -6 -9 -1 -18 4 -20 11 -3 7 -11 9
-24 4 -10 -5 -28 -10 -39 -11 -11 -2 -30 -6 -42 -10 -19 -6 -23 -4 -23 15 0
19 2 20 15 10 10 -9 15 -9 15 -1 0 6 12 11 26 11 34 0 67 19 60 35 -3 8 5 16
20 19 13 4 24 11 24 16 0 6 7 10 15 10 9 0 15 -6 14 -12z m381 -7 c0 -13 -6
-19 -19 -18 -12 1 -17 7 -13 19 6 24 32 23 32 -1z m-669 -18 c-8 -15 -10 -15
-11 -2 0 17 10 32 18 25 2 -3 -1 -13 -7 -23z m319 17 c0 -5 -5 -10 -11 -10 -5
0 -7 5 -4 10 3 6 8 10 11 10 2 0 4 -4 4 -10z m-262 -12 c14 -14 16 -48 3 -48
-5 0 -12 8 -16 18 -6 15 -8 14 -16 -7 -7 -18 -13 -21 -20 -14 -8 8 -6 18 7 37
22 29 26 30 42 14z m368 1 c4 -7 1 -10 -7 -7 -8 3 -22 -1 -31 -10 -11 -9 -18
-11 -18 -4 0 10 27 31 42 32 4 0 10 -5 14 -11z m101 -15 c-9 -9 -28 6 -21 18
4 6 10 6 17 -1 6 -6 8 -13 4 -17z m190 20 c-3 -3 -12 -4 -19 -1 -8 3 -5 6 6 6
11 1 17 -2 13 -5z m396 -19 c-3 -9 -8 -14 -10 -11 -3 3 -2 9 2 15 9 16 15 13
8 -4z m-1118 -64 c-8 -26 13 -37 29 -15 13 17 14 16 25 -4 15 -28 15 -27 -21
-25 -18 1 -43 2 -56 2 -19 1 -22 5 -17 21 8 26 -21 27 -44 1 -9 -10 -27 -22
-40 -26 l-24 -7 22 30 c11 17 18 37 15 46 -3 9 -1 16 5 16 6 0 11 -4 11 -10 0
-18 39 -11 52 10 12 19 12 19 31 -1 11 -12 16 -27 12 -38z m630 49 c3 -5 1
-10 -4 -10 -6 0 -11 5 -11 10 0 6 2 10 4 10 3 0 8 -4 11 -10z m-1208 -42 c-3
-8 -6 -5 -6 6 -1 11 2 17 5 13 3 -3 4 -12 1 -19z m1753 -2 c0 -7 7 -19 15 -26
17 -14 20 -30 6 -30 -20 0 -54 37 -48 53 8 20 27 22 27 3z m-1582 -21 c-6 -14
-18 -25 -26 -25 -12 0 -12 3 -1 18 13 15 31 31 36 32 2 0 -3 -11 -9 -25z
m-108 11 c0 -3 -4 -8 -10 -11 -5 -3 -10 -1 -10 4 0 6 5 11 10 11 6 0 10 -2 10
-4z m156 -22 c-4 -9 -9 -15 -11 -12 -3 3 -3 13 1 22 4 9 9 15 11 12 3 -3 3
-13 -1 -22z m72 3 c3 -12 -1 -15 -14 -10 -11 4 -22 -1 -30 -12 -17 -24 -18 -2
-1 25 14 24 40 22 45 -3z m499 -2 c-4 -8 -11 -15 -17 -15 -6 0 -6 7 2 20 14
22 24 19 15 -5z m-1037 -5 c0 -5 -4 -10 -9 -10 -6 0 -13 5 -16 10 -3 6 1 10 9
10 9 0 16 -4 16 -10z m353 -15 c-3 -9 -8 -14 -10 -11 -3 3 -2 9 2 15 9 16 15
13 8 -4z m-313 -19 c0 -3 -4 -8 -10 -11 -5 -3 -10 -1 -10 4 0 6 5 11 10 11 6
0 10 -2 10 -4z m2020 -19 c0 -2 -9 -12 -20 -22 -19 -17 -20 -17 -20 -1 0 9 4
15 9 11 5 -3 12 -1 16 5 6 10 15 14 15 7z m-1280 -51 c0 -3 -4 -8 -10 -11 -5
-3 -10 -1 -10 4 0 6 5 11 10 11 6 0 10 -2 10 -4z m1620 -16 c0 -5 -7 -10 -15
-10 -8 0 -15 5 -15 10 0 6 7 10 15 10 8 0 15 -4 15 -10z m-2283 -16 c-3 -3
-12 -4 -19 -1 -8 3 -5 6 6 6 11 1 17 -2 13 -5z m93 -54 c0 -5 -4 -10 -10 -10
-5 0 -10 5 -10 10 0 6 5 10 10 10 6 0 10 -4 10 -10z m670 -15 c11 -13 10 -15
-1 -10 -8 2 -21 0 -29 -5 -12 -8 -13 -13 -3 -29 10 -16 9 -20 -2 -25 -10 -4
-15 1 -15 14 0 11 -4 20 -10 20 -5 0 -10 7 -10 16 0 10 5 14 15 10 9 -3 18 1
21 9 8 19 18 19 34 0z m-712 -7 c17 -17 15 -28 -4 -28 -10 0 -14 6 -11 14 4 9
-1 17 -11 19 -14 4 -14 5 -1 6 8 0 20 -4 27 -11z m472 -4 c0 -8 -5 -12 -10 -9
-6 4 -8 11 -5 16 9 14 15 11 15 -7z m169 -40 c2 -2 0 -11 -3 -21 -7 -17 -8
-17 -20 0 -18 23 -30 21 -46 -8 -13 -24 -50 -35 -50 -15 0 6 6 10 13 10 6 0
21 11 32 24 15 18 26 23 45 19 14 -3 27 -7 29 -9z m-169 -64 c0 -5 -5 -10 -11
-10 -5 0 -7 5 -4 10 3 6 8 10 11 10 2 0 4 -4 4 -10z m10 -41 c0 -5 -4 -9 -10
-9 -5 0 -10 7 -10 16 0 8 5 12 10 9 6 -3 10 -10 10 -16z m384 -28 c3 -4 -10
-17 -30 -27 -30 -17 -36 -17 -44 -4 -8 12 -13 13 -30 3 -25 -16 -53 -16 -68
-1 -21 21 -13 25 43 25 30 0 55 -4 55 -8 0 -14 27 -10 40 6 14 17 26 19 34 6z
m66 -9 c0 -11 -41 -45 -47 -39 -6 6 28 47 39 47 5 0 8 -3 8 -8z m-291 -46
c-11 -9 -90 -16 -84 -6 3 5 25 10 47 10 23 0 39 -2 37 -4z m351 -12 c0 -10 6
-14 15 -10 8 3 15 1 15 -3 0 -5 -7 -11 -15 -15 -26 -10 -17 -29 10 -22 14 4
25 2 25 -4 0 -5 6 -10 13 -10 16 0 137 -89 137 -100 0 -11 89 -74 150 -106 27
-14 50 -30 50 -35 0 -5 6 -9 13 -9 6 0 21 -17 32 -38 15 -27 27 -36 42 -35 16
2 20 -2 16 -17 -7 -27 -16 -31 -53 -23 l-33 6 24 18 c23 18 23 19 3 19 -11 0
-36 7 -54 16 -17 9 -43 17 -56 17 -14 0 -31 8 -38 19 -10 14 -20 17 -40 12
-23 -5 -28 -2 -37 25 -9 25 -16 31 -40 31 -20 0 -29 5 -29 16 0 13 -8 11 -45
-11 -25 -14 -50 -23 -57 -19 -15 10 19 34 38 27 17 -6 18 1 4 28 -14 24 -32
24 -55 -1 -10 -11 -23 -20 -28 -20 -6 0 -3 8 6 18 25 27 22 46 -4 32 -28 -15
-36 -5 -16 18 17 18 23 52 10 52 -3 0 -15 -7 -25 -17 -17 -15 -18 -15 -18 8 0
18 -8 28 -31 36 -27 10 -30 16 -24 35 4 13 8 32 9 44 1 17 4 19 18 10 14 -8
22 -7 35 7 22 21 33 22 33 1z m-110 -22 c0 -13 -39 -46 -46 -40 -8 9 19 48 33
48 7 0 13 -4 13 -8z m-80 -72 c0 -5 -4 -10 -10 -10 -5 0 -10 5 -10 10 0 6 5
10 10 10 6 0 10 -4 10 -10z m34 -29 c6 -9 -35 -24 -43 -15 -6 5 18 24 31 24 4
0 9 -4 12 -9z m56 -16 c0 -8 -4 -15 -10 -15 -5 0 -10 7 -10 15 0 8 5 15 10 15
6 0 10 -7 10 -15z m30 -3 c0 -5 -7 -17 -15 -28 -15 -19 -20 -8 -9 20 6 17 24
22 24 8z m-500 -12 c0 -5 -5 -10 -11 -10 -5 0 -7 5 -4 10 3 6 8 10 11 10 2 0
4 -4 4 -10z m-5 -41 c7 -11 -22 -38 -41 -39 -7 0 -9 10 -6 25 4 26 35 35 47
14z m532 -16 c2 -6 -3 -13 -12 -16 -10 -5 -15 0 -15 14 0 21 21 22 27 2z m43
-54 c0 -11 -27 -12 -34 0 -3 4 -3 11 0 14 8 8 34 -3 34 -14z m40 -29 c0 -5 -2
-10 -4 -10 -3 0 -8 5 -11 10 -3 6 -1 10 4 10 6 0 11 -4 11 -10z m77 -16 c-3
-3 -12 -4 -19 -1 -8 3 -5 6 6 6 11 1 17 -2 13 -5z m-337 -189 c0 -8 -4 -15 -9
-15 -13 0 -22 16 -14 24 11 11 23 6 23 -9z m110 -45 c0 -5 -2 -10 -4 -10 -3 0
-8 5 -11 10 -3 6 -1 10 4 10 6 0 11 -4 11 -10z m-35 -10 c3 -5 -3 -10 -15 -10
-12 0 -18 5 -15 10 3 6 10 10 15 10 5 0 12 -4 15 -10z m95 -10 c0 -5 -4 -10
-10 -10 -5 0 -10 5 -10 10 0 6 5 10 10 10 6 0 10 -4 10 -10z m285 -20 c-5 -8
-11 -8 -17 -2 -6 6 -7 16 -3 22 5 8 11 8 17 2 6 -6 7 -16 3 -22z m50 -20 c3
-5 -1 -10 -9 -10 -9 0 -16 5 -16 10 0 6 4 10 9 10 6 0 13 -4 16 -10z m-810
-117 c-2 -10 -4 -20 -4 -22 -1 -2 -7 2 -14 8 -8 6 -17 8 -20 4 -4 -3 -7 -1 -7
5 0 11 16 20 37 21 6 1 10 -7 8 -16z m465 2 c0 -2 -6 -5 -13 -8 -8 -3 -14 1
-14 8 0 7 6 11 14 8 7 -3 13 -6 13 -8z m65 -1 c-16 -12 -17 -17 -7 -23 11 -7
10 -10 -3 -15 -18 -7 -35 0 -35 14 0 5 12 16 28 24 35 19 42 19 17 0z m925
-14 c0 -5 -4 -10 -10 -10 -5 0 -10 5 -10 10 0 6 5 10 10 10 6 0 10 -4 10 -10z
m-1535 -20 c-3 -5 -12 -10 -18 -10 -7 0 -6 4 3 10 19 12 23 12 15 0z m-60 -30
c-10 -11 -23 -20 -29 -20 -6 1 0 10 13 20 30 26 39 26 16 0z m1505 10 c0 -5
-2 -10 -4 -10 -2 0 -12 -3 -22 -7 -16 -6 -17 -5 -4 10 17 19 30 22 30 7z
m-1420 -30 c0 -5 -4 -10 -10 -10 -5 0 -10 5 -10 10 0 6 5 10 10 10 6 0 10 -4
10 -10z m137 4 c-3 -3 -12 -4 -19 -1 -8 3 -5 6 6 6 11 1 17 -2 13 -5z m1336
-8 c8 -20 -1 -26 -37 -26 l-31 0 25 20 c30 23 36 24 43 6z m-1376 -4 c7 -4 9
-13 5 -19 -6 -9 -11 -6 -20 7 -13 21 -6 26 15 12z m-642 -12 c3 -5 1 -10 -4
-10 -6 0 -11 5 -11 10 0 6 2 10 4 10 3 0 8 -4 11 -10z m725 6 c0 -3 -4 -8 -10
-11 -5 -3 -10 -1 -10 4 0 6 5 11 10 11 6 0 10 -2 10 -4z m525 -18 c14 -6 25
-15 25 -20 0 -8 -17 -1 -50 22 -20 13 -7 13 25 -2z m-1058 -25 c2 -6 -5 -13
-17 -16 -12 -3 -20 0 -20 7 0 26 29 33 37 9z m383 -3 c0 -5 -4 -10 -9 -10 -6
0 -13 5 -16 10 -3 6 1 10 9 10 9 0 16 -4 16 -10z m480 2 c0 -13 -12 -22 -22
-16 -10 6 -1 24 13 24 5 0 9 -4 9 -8z m-903 -67 c-24 -18 -69 -125 -53 -125
18 0 36 15 36 30 0 10 7 20 15 24 8 3 15 15 15 26 0 13 7 20 20 20 11 0 20 -5
20 -10 0 -6 12 -15 28 -21 26 -10 26 -11 7 -21 -31 -17 -35 -31 -17 -52 16
-18 16 -19 -8 -13 -14 4 -33 7 -42 7 -24 0 -23 21 1 27 13 3 17 11 14 24 -6
22 -23 26 -23 5 0 -25 -34 -76 -51 -76 -9 0 -24 9 -33 19 -17 18 -16 22 8 68
14 26 26 52 26 57 0 5 8 18 17 28 13 14 18 16 25 6 4 -8 2 -17 -5 -23z m123
14 c0 -6 -4 -7 -10 -4 -5 3 -10 11 -10 16 0 6 5 7 10 4 6 -3 10 -11 10 -16z
m-405 -19 c0 -7 -6 -15 -12 -17 -8 -3 -13 4 -13 17 0 13 5 20 13 18 6 -3 12
-11 12 -18z m465 -24 c0 -14 -49 -40 -58 -31 -7 7 41 52 51 48 4 -2 7 -10 7
-17z m840 -7 c0 -3 -14 -4 -30 -1 -24 3 -28 7 -19 18 8 10 15 11 30 1 10 -6
19 -14 19 -18z m117 21 c8 0 11 -5 8 -10 -10 -16 -85 -8 -85 9 0 10 8 12 31 7
17 -3 38 -6 46 -6z m-417 -10 c0 -5 -5 -10 -11 -10 -5 0 -7 5 -4 10 3 6 8 10
11 10 2 0 4 -4 4 -10z m-516 -45 c-4 -17 -2 -25 7 -25 7 0 10 -2 7 -5 -3 -4
-18 -3 -33 1 -23 6 -25 8 -11 16 9 5 16 16 16 23 0 8 5 15 10 15 6 0 8 -11 4
-25z m336 15 c-20 -13 -33 -13 -25 0 3 6 14 10 23 10 15 0 15 -2 2 -10z
m-4315 -10 l20 -9 -20 0 c-11 -1 -30 -4 -42 -7 -17 -5 -23 -2 -23 10 0 18 31
21 65 6z m4210 0 c-3 -5 -14 -10 -23 -10 -15 0 -15 2 -2 10 20 13 33 13 25 0z
m-175 -4 c0 -11 -19 -15 -25 -6 -3 5 1 10 9 10 9 0 16 -2 16 -4z m-4261 -35
c-15 -5 -22 6 -14 19 6 9 10 9 16 -1 5 -8 4 -15 -2 -18z m4127 -10 c-4 -6 -14
-11 -22 -11 -12 0 -13 4 -3 21 7 14 14 18 21 11 6 -6 7 -15 4 -21z m1894 19
c0 -5 -4 -10 -10 -10 -5 0 -10 5 -10 10 0 6 5 10 10 10 6 0 10 -4 10 -10z
m-1680 -24 c0 -3 -4 -8 -10 -11 -5 -3 -10 -1 -10 4 0 6 5 11 10 11 6 0 10 -2
10 -4z m-173 -46 c-30 -24 -37 -25 -37 -6 0 16 15 24 44 25 16 1 15 -2 -7 -19z
m831 -29 c3 -8 -1 -12 -9 -9 -7 2 -15 10 -17 17 -3 8 1 12 9 9 7 -2 15 -10 17
-17z m-4618 -6 c0 -8 5 -15 10 -15 6 0 10 -11 10 -25 0 -19 5 -25 23 -26 18
-1 17 -2 -7 -10 -17 -4 -31 -7 -31 -6 -1 1 -11 18 -23 38 -27 45 -28 59 -2 59
11 0 20 -7 20 -15z m4005 5 c-3 -5 -11 -10 -16 -10 -6 0 -7 5 -4 10 3 6 11 10
16 10 6 0 7 -4 4 -10z m-3828 -37 c2 -6 -5 -17 -17 -23 -18 -9 -25 -8 -41 6
-19 17 -19 19 -2 26 25 10 56 5 60 -9z m83 9 c0 -5 9 -18 19 -29 20 -21 20
-21 0 -26 -10 -3 -19 -1 -19 4 0 5 -4 9 -10 9 -5 0 -10 -7 -10 -15 0 -21 -38
-19 -42 3 -3 9 7 27 21 39 27 23 41 28 41 15z m4310 -13 c0 -6 -4 -7 -10 -4
-5 3 -10 11 -10 16 0 6 5 7 10 4 6 -3 10 -11 10 -16z m-870 -14 c0 -8 -4 -15
-10 -15 -5 0 -7 7 -4 15 4 8 8 15 10 15 2 0 4 -7 4 -15z m149 1 c13 -7 19 -16
14 -19 -6 -4 -21 2 -33 13 -26 23 -17 26 19 6z m58 8 c-3 -3 -12 -4 -19 -1 -8
3 -5 6 6 6 11 1 17 -2 13 -5z m-4582 -79 c4 -35 13 -70 21 -76 15 -12 14 -14
32 51 8 30 10 32 16 15 15 -40 23 -49 54 -57 24 -7 32 -14 32 -31 0 -23 61
-87 82 -87 5 0 8 -6 5 -12 -2 -7 -13 -12 -24 -11 -22 2 -40 -25 -45 -67 -4
-33 -35 -39 -47 -8 -5 13 -16 29 -24 36 -12 10 -16 9 -20 -9 -3 -11 -3 -35 0
-54 6 -38 37 -53 60 -29 16 16 34 15 40 -3 2 -6 -8 -13 -22 -17 -16 -4 -25
-13 -25 -26 0 -11 -7 -20 -15 -20 -30 0 -14 -20 18 -21 17 -1 24 -3 15 -6 -10
-2 -18 -11 -18 -19 0 -8 -7 -14 -15 -14 -19 0 -21 -90 -3 -119 12 -20 5 -51
-12 -51 -5 0 -10 20 -10 45 0 31 -5 47 -17 53 -23 13 -43 -9 -42 -45 0 -15 3
-22 6 -14 6 14 41 -59 42 -86 2 -28 -27 -11 -34 20 -6 28 -8 30 -15 12 -6 -14
-9 0 -9 44 -1 48 3 69 16 84 17 18 17 19 0 32 -10 7 -17 25 -17 43 0 17 -4 34
-10 37 -5 3 -10 21 -10 40 0 21 -7 39 -18 47 -26 18 -37 90 -37 238 0 98 3
129 15 142 22 24 28 15 35 -57z m2788 55 c3 -11 1 -23 -4 -26 -5 -3 -9 6 -9
20 0 31 6 34 13 6z m3617 10 c0 -5 -7 -10 -16 -10 -8 0 -12 5 -9 10 3 6 10 10
16 10 5 0 9 -4 9 -10z m-930 -40 c5 0 10 4 12 8 2 5 15 12 31 16 20 5 27 3 27
-9 0 -8 -8 -15 -17 -15 -10 0 -27 -7 -37 -15 -24 -18 -53 -19 -59 -2 -3 9 -8
9 -21 -2 -15 -13 -20 -12 -39 8 -18 18 -19 21 -4 15 10 -4 25 0 35 9 26 23 56
26 60 5 2 -10 7 -18 12 -18z m-5340 14 c0 -9 -7 -14 -17 -12 -25 5 -28 28 -4
28 12 0 21 -6 21 -16z m4287 -9 c-1 -14 -5 -25 -10 -25 -4 0 -7 2 -7 5 0 3 0
14 0 25 0 11 4 20 9 20 6 0 9 -11 8 -25z m-62 5 c-3 -5 -10 -10 -16 -10 -5 0
-9 5 -9 10 0 6 7 10 16 10 8 0 12 -4 9 -10z m105 -23 c0 -18 -2 -19 -10 -7
-13 20 -13 43 0 35 6 -3 10 -16 10 -28z m-126 -26 c-2 -2 -10 2 -18 8 -8 7
-20 10 -25 6 -7 -3 -8 0 -5 9 5 14 9 13 29 -2 13 -9 21 -19 19 -21z m-90 -3
c-5 -7 -2 -9 7 -6 12 5 15 -5 15 -48 1 -49 -1 -55 -22 -60 -12 -3 -28 -3 -33
1 -7 3 -11 -2 -11 -14 0 -28 -16 -27 -23 1 -9 32 1 41 38 34 43 -8 49 3 30 56
-17 51 -18 61 -5 53 6 -4 7 -11 4 -17z m1136 -24 c0 -8 -10 -14 -22 -14 -18 0
-23 6 -25 30 -2 30 -2 30 22 14 14 -9 25 -23 25 -30z m-102 28 c13 13 32 2 32
-18 0 -8 -10 -14 -26 -14 -32 0 -66 18 -59 31 4 6 13 6 24 -1 12 -6 22 -5 29
2z m-888 -23 c0 -5 -7 -9 -15 -9 -9 0 -12 6 -9 15 6 15 24 11 24 -6z m2020 11
c0 -5 -4 -10 -10 -10 -5 0 -10 5 -10 10 0 6 5 10 10 10 6 0 10 -4 10 -10z
m-5372 -12 c-5 -15 -48 -24 -48 -10 0 14 12 22 33 22 10 0 17 -5 15 -12z
m4473 -13 c25 -10 29 -14 13 -15 -11 0 -29 7 -40 15 -25 19 -15 19 27 0z
m-1292 -28 c0 -12 -3 -17 -5 -10 -3 7 -12 9 -20 6 -17 -6 -19 8 -2 25 15 15
28 6 27 -21z m216 13 c0 -8 -8 -16 -17 -18 -13 -2 -18 3 -18 18 0 15 5 20 18
18 9 -2 17 -10 17 -18z m1022 -17 c29 -20 53 -37 53 -38 0 -2 -7 -8 -15 -15
-12 -10 -16 -8 -25 14 -5 15 -20 30 -33 35 -23 9 -56 41 -41 41 4 0 31 -16 61
-37z m-4637 17 c0 -5 -4 -10 -10 -10 -5 0 -10 5 -10 10 0 6 5 10 10 10 6 0 10
-4 10 -10z m4344 -21 c-28 -11 -70 -11 -58 0 11 11 55 19 68 12 5 -2 1 -8 -10
-12z m-4310 5 c20 -7 21 -20 3 -27 -19 -7 -41 8 -33 22 8 13 9 13 30 5z m-64
-34 c0 -4 -6 -13 -14 -19 -11 -9 -15 -8 -20 5 -3 9 -4 20 -1 24 6 10 35 2 35
-10z m3550 16 c0 -3 -4 -8 -10 -11 -5 -3 -10 -1 -10 4 0 6 5 11 10 11 6 0 10
-2 10 -4z m654 -11 c-4 -8 -10 -12 -15 -9 -11 6 -2 24 11 24 5 0 7 -7 4 -15z
m236 11 c0 -2 -7 -6 -15 -10 -8 -3 -15 -1 -15 4 0 6 7 10 15 10 8 0 15 -2 15
-4z m315 -6 c3 -5 1 -10 -4 -10 -6 0 -11 5 -11 10 0 6 2 10 4 10 3 0 8 -4 11
-10z m-485 -4 c0 -2 -7 -6 -15 -10 -8 -3 -15 -1 -15 4 0 6 7 10 15 10 8 0 15
-2 15 -4z m-740 -26 c0 -5 -6 -10 -14 -10 -8 0 -18 5 -21 10 -3 6 3 10 14 10
12 0 21 -4 21 -10z m630 0 c0 -5 -2 -10 -4 -10 -3 0 -8 5 -11 10 -3 6 -1 10 4
10 6 0 11 -4 11 -10z m767 -6 c-3 -3 -12 -4 -19 -1 -8 3 -5 6 6 6 11 1 17 -2
13 -5z m-5477 -19 c0 -9 -6 -12 -15 -9 -8 4 -15 10 -15 15 0 5 7 9 15 9 8 0
15 -7 15 -15z m934 -11 c5 -14 4 -15 -9 -4 -17 14 -19 20 -6 20 5 0 12 -7 15
-16z m4086 -4 c0 -5 -4 -10 -10 -10 -5 0 -10 5 -10 10 0 6 5 10 10 10 6 0 10
-4 10 -10z m50 -8 c0 -24 10 -34 24 -23 6 5 22 11 36 13 20 2 26 -2 28 -21 2
-14 7 -20 11 -13 4 6 17 9 29 5 31 -8 26 -47 -5 -51 -19 -3 -23 -10 -23 -38 0
-25 -4 -34 -16 -34 -12 0 -15 6 -10 25 7 27 -8 35 -18 10 -10 -26 -26 -16 -26
15 0 17 5 30 10 30 6 0 10 9 10 20 0 17 -3 19 -19 10 -26 -13 -31 -13 -31 5 0
8 -7 15 -16 15 -11 0 -14 5 -10 16 3 9 6 20 6 25 0 5 5 9 10 9 6 0 10 -8 10
-18z m-4575 -12 c-3 -5 -12 -7 -20 -3 -21 7 -19 13 6 13 11 0 18 -4 14 -10z
m413 -8 c2 -7 -6 -12 -17 -12 -21 0 -27 11 -14 24 9 9 26 2 31 -12z m59 -16
c-9 -23 -37 -20 -37 3 0 21 20 33 34 20 5 -4 6 -15 3 -23z m4413 24 c0 -5 -4
-10 -10 -10 -5 0 -10 5 -10 10 0 6 5 10 10 10 6 0 10 -4 10 -10z m-1417 -29
c20 -34 13 -69 -9 -50 -8 6 -14 20 -14 30 0 11 -7 19 -15 19 -8 0 -15 7 -15
15 0 26 35 16 53 -14z m862 19 c3 -5 1 -10 -4 -10 -6 0 -11 5 -11 10 0 6 2 10
4 10 3 0 8 -4 11 -10z m-209 -27 c-10 -10 -19 5 -10 18 6 11 8 11 12 0 2 -7 1
-15 -2 -18z m379 17 c4 -6 -5 -10 -19 -10 -14 0 -26 5 -26 10 0 6 9 10 19 10
11 0 23 -4 26 -10z m-4465 -30 c0 -11 -4 -20 -10 -20 -5 0 -10 9 -10 20 0 11
5 20 10 20 6 0 10 -9 10 -20z m4513 9 c37 -20 50 -51 18 -42 -10 2 -25 -3 -35
-12 -18 -19 -21 -13 -6 15 7 13 7 21 0 25 -11 7 -14 25 -4 25 3 0 15 -5 27
-11z m-4567 -29 c10 0 14 -12 14 -40 0 -33 -3 -40 -20 -40 -11 0 -20 -4 -20
-10 0 -5 -18 -10 -40 -10 -36 0 -40 3 -40 25 0 21 4 24 28 19 40 -7 61 10 45
36 -17 26 -16 33 3 26 9 -3 22 -6 30 -6z m-86 -4 c0 -3 -4 -8 -10 -11 -5 -3
-10 -1 -10 4 0 6 5 11 10 11 6 0 10 -2 10 -4z m3620 -11 c0 -9 -6 -12 -15 -9
-8 4 -15 10 -15 15 0 5 7 9 15 9 8 0 15 -7 15 -15z m1315 5 c3 -5 2 -10 -4
-10 -5 0 -13 5 -16 10 -3 6 -2 10 4 10 5 0 13 -4 16 -10z m280 -32 c6 -5 6 -8
-2 -8 -14 0 -43 28 -43 41 0 6 8 2 17 -8 10 -10 22 -21 28 -25z m-1181 17 c-4
-8 -11 -12 -16 -9 -6 4 -5 10 3 15 19 12 19 11 13 -6z m496 11 c0 -3 -4 -8
-10 -11 -5 -3 -10 -1 -10 4 0 6 5 11 10 11 6 0 10 -2 10 -4z m360 -26 c0 -5
-4 -10 -9 -10 -6 0 -13 5 -16 10 -3 6 1 10 9 10 9 0 16 -4 16 -10z m128 -7
c47 -7 39 -19 -14 -21 -27 -2 -51 3 -59 12 -18 17 -7 29 20 21 11 -4 35 -9 53
-12z m137 7 c3 -5 -1 -10 -9 -10 -9 0 -16 5 -16 10 0 6 4 10 9 10 6 0 13 -4
16 -10z m-325 -20 c0 -5 -7 -10 -15 -10 -8 0 -15 5 -15 10 0 6 7 10 15 10 8 0
15 -4 15 -10z m257 4 c-3 -3 -12 -4 -19 -1 -8 3 -5 6 6 6 11 1 17 -2 13 -5z
m-588 -34 c-15 -10 -41 -1 -34 10 3 5 14 6 26 3 15 -4 17 -8 8 -13z m-5185
-27 c-3 -21 -9 -60 -14 -88 -8 -45 -9 -42 -5 25 3 41 5 81 5 88 0 6 5 12 10
12 6 0 8 -15 4 -37z m5556 -4 c13 -23 13 -29 0 -29 -5 0 -10 7 -10 15 0 10
-11 15 -35 15 -39 0 -48 17 -12 22 30 5 46 -1 57 -23z m-4550 11 c0 -5 -4 -10
-10 -10 -5 0 -10 5 -10 10 0 6 5 10 10 10 6 0 10 -4 10 -10z m3235 0 c3 -5 1
-10 -4 -10 -6 0 -11 5 -11 10 0 6 2 10 4 10 3 0 8 -4 11 -10z m395 0 c0 -5 -2
-10 -4 -10 -3 0 -8 5 -11 10 -3 6 -1 10 4 10 6 0 11 -4 11 -10z m1110 0 c0 -5
-7 -10 -15 -10 -8 0 -15 5 -15 10 0 6 7 10 15 10 8 0 15 -4 15 -10z m-5080
-16 c0 -14 10 -15 78 -9 42 4 80 12 84 18 5 8 14 7 33 -1 14 -7 39 -12 56 -12
37 0 30 -16 -11 -25 -21 -5 -30 -13 -30 -26 0 -10 -4 -19 -10 -19 -5 0 -10 9
-10 20 0 19 -7 20 -95 20 -57 0 -95 4 -95 10 0 6 -9 10 -20 10 -20 0 -26 11
-13 23 12 13 33 7 33 -9z m4941 3 c-1 -12 -15 -9 -19 4 -3 6 1 10 8 8 6 -3 11
-8 11 -12z m-501 -11 c0 -3 -4 -8 -10 -11 -5 -3 -10 -1 -10 4 0 6 5 11 10 11
6 0 10 -2 10 -4z m-4665 -16 c3 -5 -1 -10 -10 -10 -9 0 -13 5 -10 10 3 6 8 10
10 10 2 0 7 -4 10 -10z m768 -7 c-13 -2 -33 -2 -45 0 -13 2 -3 4 22 4 25 0 35
-2 23 -4z m4342 -20 c1 -16 -4 -23 -16 -23 -12 0 -16 7 -15 25 1 32 29 29 31
-2z m126 5 c10 -18 9 -20 -6 -15 -9 4 -19 7 -21 7 -2 0 -4 7 -4 15 0 22 18 18
31 -7z m-4611 -3 c0 -11 -11 -15 -40 -15 -29 0 -40 4 -40 15 0 11 11 15 40 15
29 0 40 -4 40 -15z m383 8 c-13 -2 -33 -2 -45 0 -13 2 -3 4 22 4 25 0 35 -2
23 -4z m3967 -8 c0 -8 -7 -15 -15 -15 -8 0 -15 7 -15 15 0 8 7 15 15 15 8 0
15 -7 15 -15z m80 5 c0 -13 -11 -13 -30 0 -12 8 -11 10 8 10 12 0 22 -4 22
-10z m-4963 -16 c-3 -3 -12 -4 -19 -1 -8 3 -5 6 6 6 11 1 17 -2 13 -5z m276
-1 c-13 -2 -33 -2 -45 0 -13 2 -3 4 22 4 25 0 35 -2 23 -4z m3700 -18 c-3 -9
-8 -14 -10 -11 -3 3 -2 9 2 15 9 16 15 13 8 -4z m-3700 -2 c-13 -2 -33 -2 -45
0 -13 2 -3 4 22 4 25 0 35 -2 23 -4z m3607 -2 c0 -18 -18 -21 -30 -6 -10 13
-9 15 9 15 11 0 21 -4 21 -9z m65 -1 c3 -5 -1 -10 -9 -10 -9 0 -16 5 -16 10 0
6 4 10 9 10 6 0 13 -4 16 -10z m1390 -10 c3 -5 1 -10 -4 -10 -6 0 -11 5 -11
10 0 6 2 10 4 10 3 0 8 -4 11 -10z m-5425 -16 c0 -2 -7 -4 -15 -4 -8 0 -15 4
-15 10 0 5 7 7 15 4 8 -4 15 -8 15 -10z m4100 6 c0 -5 -4 -10 -10 -10 -5 0
-10 5 -10 10 0 6 5 10 10 10 6 0 10 -4 10 -10z m-1873 -32 c-3 -7 -5 -2 -5 12
0 14 2 19 5 13 2 -7 2 -19 0 -25z m1723 8 c0 -18 -17 -29 -30 -21 -8 5 -7 11
1 21 15 18 29 18 29 0z m1260 -21 c0 -8 11 -22 25 -31 29 -19 34 -37 8 -27
-23 9 -43 29 -43 42 0 6 -4 11 -10 11 -5 0 -10 5 -10 10 0 6 7 10 15 10 8 0
15 -7 15 -15z m-3793 -27 c-3 -8 -6 -5 -6 6 -1 11 2 17 5 13 3 -3 4 -12 1 -19z
m2410 -10 c-3 -8 -6 -5 -6 6 -1 11 2 17 5 13 3 -3 4 -12 1 -19z m-3432 2 c3
-5 1 -10 -4 -10 -6 0 -11 5 -11 10 0 6 2 10 4 10 3 0 8 -4 11 -10z m4962 4
c-3 -3 -12 -4 -19 -1 -8 3 -5 6 6 6 11 1 17 -2 13 -5z m-3967 -28 c0 -20 -19
-31 -32 -18 -6 6 -7 15 -4 21 10 16 36 13 36 -3z m2600 -6 c0 -5 -4 -10 -10
-10 -5 0 -10 5 -10 10 0 6 5 10 10 10 6 0 10 -4 10 -10z m-2780 -25 c0 -8 -4
-15 -9 -15 -13 0 -22 16 -14 24 11 11 23 6 23 -9z m120 1 c0 -3 -4 -8 -10 -11
-5 -3 -10 -1 -10 4 0 6 5 11 10 11 6 0 10 -2 10 -4z m896 -21 c-3 -28 -16 -47
-16 -22 0 16 10 47 15 47 2 0 2 -11 1 -25z m3169 5 c3 -5 1 -10 -4 -10 -6 0
-11 5 -11 10 0 6 2 10 4 10 3 0 8 -4 11 -10z m-5658 -32 c-3 -7 -5 -2 -5 12 0
14 2 19 5 13 2 -7 2 -19 0 -25z m4108 -28 c-3 -5 -10 -10 -16 -10 -5 0 -9 5
-9 10 0 6 7 10 16 10 8 0 12 -4 9 -10z m45 1 c0 -6 -4 -13 -10 -16 -5 -3 -10
1 -10 9 0 9 5 16 10 16 6 0 10 -4 10 -9z m-4183 -37 c3 -8 1 -20 -6 -27 -8 -8
-11 -7 -11 6 0 9 -5 17 -11 17 -5 0 -7 5 -4 10 9 15 25 12 32 -6z m4198 -12
c0 -17 -13 -15 -31 3 -14 14 -13 15 8 12 13 -2 23 -9 23 -15z m-65 -12 c0 -5
-4 -10 -10 -10 -5 0 -10 5 -10 10 0 6 5 10 10 10 6 0 10 -4 10 -10z m1460 -60
c0 -5 -4 -10 -10 -10 -5 0 -10 5 -10 10 0 6 5 10 10 10 6 0 10 -4 10 -10z m52
-133 c-8 -16 -30 14 -25 34 5 19 6 19 18 -3 6 -13 10 -27 7 -31z m-1412 7 c0
-9 -5 -14 -12 -12 -18 6 -21 28 -4 28 9 0 16 -7 16 -16z m-2440 -4 c0 -5 -2
-10 -4 -10 -3 0 -8 5 -11 10 -3 6 -1 10 4 10 6 0 11 -4 11 -10z m3271 -24 c4
-5 20 -4 37 2 25 9 31 8 36 -6 3 -10 9 -22 12 -29 3 -6 -4 -14 -15 -18 -27 -8
-28 -45 -1 -52 11 -3 20 -14 20 -24 0 -24 16 -33 24 -13 11 28 7 46 -9 41 -23
-9 -27 10 -8 33 22 26 45 26 61 -1 9 -13 19 -18 32 -14 24 8 35 -11 18 -32
-11 -14 -10 -15 8 -9 18 5 23 2 28 -19 4 -15 11 -23 17 -19 7 4 7 -1 0 -15 -7
-11 -15 -21 -19 -21 -16 0 -30 23 -25 39 5 13 3 14 -8 4 -17 -17 -29 -16 -29
1 0 24 -20 29 -34 10 -15 -20 -48 -28 -57 -13 -8 13 -32 14 -91 5 -32 -5 -48
-4 -48 3 0 6 -18 11 -40 11 -36 0 -40 -2 -31 -18 7 -13 4 -24 -10 -42 -10 -14
-19 -33 -19 -44 0 -15 -3 -16 -15 -6 -8 7 -15 16 -15 21 0 5 7 9 15 9 8 0 15
8 15 18 0 10 5 23 11 29 7 7 6 12 -5 16 -10 4 -16 1 -16 -7 0 -7 -9 -21 -20
-31 -10 -9 -18 -22 -17 -28 1 -7 -7 -13 -19 -15 -17 -2 -21 2 -22 29 -1 26 2
30 19 26 31 -8 33 12 2 24 -25 9 -26 11 -10 20 12 7 22 7 31 0 10 -8 18 -6 31
9 10 11 15 23 12 27 -4 3 -7 1 -7 -5 0 -7 -11 -12 -26 -12 l-25 0 25 33 c14
18 38 40 53 48 16 8 36 21 46 30 19 17 77 20 88 5z m-6661 -46 c8 -5 12 -12 8
-15 -10 -10 -49 5 -43 16 8 11 16 11 35 -1z m281 0 c39 0 69 -4 69 -10 0 -17
-151 -12 -180 6 l-25 15 34 -5 c18 -3 64 -6 102 -6z m-171 -10 c0 -5 -18 -10
-40 -10 -22 0 -40 5 -40 10 0 6 18 10 40 10 22 0 40 -4 40 -10z m435 0 c-27
-5 -66 -8 -85 -8 -32 1 -31 2 10 8 25 4 63 7 85 7 38 0 37 0 -10 -7z m314 -36
c8 -2 11 -8 7 -11 -8 -9 -64 -5 -186 12 l-95 13 130 -5 c72 -3 136 -7 144 -9z
m5010 -20 c3 -16 1 -17 -13 -5 -19 16 -21 34 -3 29 6 -3 14 -13 16 -24z m1211
22 c0 -3 -4 -8 -10 -11 -5 -3 -10 -1 -10 4 0 6 5 11 10 11 6 0 10 -2 10 -4z
m-7307 -33 c-13 -2 -33 -2 -45 0 -13 2 -3 4 22 4 25 0 35 -2 23 -4z m1882 -2
c3 -6 44 -22 91 -37 62 -19 84 -30 80 -40 -4 -11 6 -14 42 -15 l47 -2 -55 -7
c-30 -4 -125 -4 -210 1 -85 5 -220 9 -300 9 -80 1 -154 5 -165 10 -15 6 -6 9
35 11 l55 1 -55 9 c-30 4 -109 8 -175 9 -176 2 -231 8 -175 20 19 4 71 5 115
4 93 -4 88 -4 141 0 22 1 46 6 54 11 7 5 69 9 137 10 68 1 126 5 130 8 10 11
201 8 208 -2z m3535 -1 c0 -6 -53 -9 -142 -8 l-143 2 125 6 c69 3 133 7 143 8
9 1 17 -2 17 -8z m169 6 c-2 -2 -26 -7 -53 -10 -33 -5 -46 -4 -41 3 3 6 27 11
52 11 26 0 44 -2 42 -4z m-540 -22 c2 -2 -17 -4 -42 -4 -26 0 -47 4 -47 9 0 8
79 3 89 -5z m-4111 -1 c67 -3 122 -10 122 -16 0 -5 -51 -7 -132 -3 -73 3 -152
6 -175 6 -24 0 -43 5 -43 10 0 12 59 13 228 3z m-295 -10 c-13 -2 -33 -2 -45
0 -13 2 -3 4 22 4 25 0 35 -2 23 -4z m6682 -13 c3 -6 -1 -7 -9 -4 -18 7 -21
14 -7 14 6 0 13 -4 16 -10z m-7032 -7 c-7 -2 -19 -2 -25 0 -7 3 -2 5 12 5 14
0 19 -2 13 -5z m6653 -30 c-11 -11 -19 6 -11 24 8 17 8 17 12 0 3 -10 2 -21
-1 -24z m244 -8 c0 -26 -29 -42 -42 -23 -12 20 -9 36 9 47 23 12 33 5 33 -24z
m-2495 15 c41 -6 27 -8 -75 -10 -90 -2 -112 -5 -78 -9 58 -8 73 -21 27 -22
-78 -2 -144 -11 -147 -20 -2 -5 -34 -9 -70 -9 -47 0 -63 3 -52 10 8 5 28 10
43 10 16 0 26 4 22 10 -3 6 2 13 12 16 10 3 27 10 38 14 11 5 27 11 35 13 23
8 189 6 245 -3z m1138 3 c-7 -2 -19 -2 -25 0 -7 3 -2 5 12 5 14 0 19 -2 13 -5z
m90 0 c-13 -2 -33 -2 -45 0 -13 2 -3 4 22 4 25 0 35 -2 23 -4z m64 1 c-3 -3
-12 -4 -19 -1 -8 3 -5 6 6 6 11 1 17 -2 13 -5z m1000 -16 c-3 -8 -6 -5 -6 6
-1 11 2 17 5 13 3 -3 4 -12 1 -19z m-5864 5 c-7 -2 -21 -2 -30 0 -10 3 -4 5
12 5 17 0 24 -2 18 -5z m90 0 c-7 -2 -21 -2 -30 0 -10 3 -4 5 12 5 17 0 24 -2
18 -5z m87 -3 c0 -5 -4 -10 -9 -10 -6 0 -13 5 -16 10 -3 6 1 10 9 10 9 0 16
-4 16 -10z m3530 6 c0 -11 -19 -15 -25 -6 -3 5 1 10 9 10 9 0 16 -2 16 -4z
m225 -1 c-25 -8 -155 -11 -155 -4 0 5 37 9 83 8 45 0 78 -2 72 -4z m2035 -5
c0 -5 -7 -10 -15 -10 -8 0 -15 5 -15 10 0 6 7 10 15 10 8 0 15 -4 15 -10z
m-1827 -7 c-7 -2 -19 -2 -25 0 -7 3 -2 5 12 5 14 0 19 -2 13 -5z m1587 -3 c0
-5 -7 -13 -16 -18 -9 -5 -15 -12 -15 -15 3 -21 -1 -27 -14 -27 -24 0 -18 44 8
56 29 15 37 16 37 4z m180 -30 c8 -5 11 -10 5 -10 -5 0 -17 5 -25 10 -8 5 -10
10 -5 10 6 0 17 -5 25 -10z m130 -20 c0 -5 -4 -12 -10 -15 -5 -3 -10 -4 -10
-1 0 2 -3 12 -6 20 -5 12 -2 15 10 10 9 -3 16 -10 16 -14z m-60 0 c0 -5 -4
-10 -10 -10 -5 0 -10 5 -10 10 0 6 5 10 10 10 6 0 10 -4 10 -10z m-446 -34
c-16 -12 -16 -14 2 -24 19 -11 18 -11 -1 -12 -24 0 -48 43 -32 59 7 7 16 7 29
0 19 -10 19 -11 2 -23z m540 25 c3 -4 -4 -17 -16 -27 -12 -11 -19 -14 -16 -9
3 6 8 18 11 28 7 19 13 21 21 8z m-464 -31 c0 -13 9 -22 25 -26 14 -3 25 -11
25 -16 0 -6 -10 -8 -22 -4 -13 3 -29 6 -35 6 -8 0 -13 14 -13 36 0 21 4 33 10
29 6 -3 10 -15 10 -25z m404 -5 c-4 -8 -10 -15 -15 -15 -5 0 -9 7 -9 15 0 8 7
15 15 15 9 0 12 -6 9 -15z m-336 -80 c-2 -6 -7 -9 -12 -7 -4 1 -14 -3 -22 -9
-11 -9 -14 -8 -14 4 0 9 8 18 18 20 23 6 34 3 30 -8z m52 11 c0 -2 -7 -6 -15
-10 -8 -3 -15 -1 -15 4 0 6 7 10 15 10 8 0 15 -2 15 -4z m54 -21 c3 -8 1 -15
-4 -15 -6 0 -10 7 -10 15 0 8 2 15 4 15 2 0 6 -7 10 -15z m21 -45 c3 -5 2 -10
-4 -10 -5 0 -13 5 -16 10 -3 6 -2 10 4 10 5 0 13 -4 16 -10z m-70 -10 c-3 -5
-10 -10 -16 -10 -5 0 -9 5 -9 10 0 6 7 10 16 10 8 0 12 -4 9 -10z m-4447 -686
c12 -4 22 -11 22 -16 0 -5 -5 -6 -12 -2 -6 4 -32 6 -57 6 -33 -1 -42 1 -31 8
17 11 45 12 78 4z m-13 -44 c-3 -5 -12 -10 -20 -10 -7 0 -16 -6 -18 -12 -4
-10 -8 -10 -15 1 -5 7 -18 11 -28 8 -11 -3 -32 -8 -49 -11 l-30 -7 30 20 c32
21 142 30 130 11z"/>
<path d="M1970 3693 c0 -13 5 -23 10 -23 13 0 13 11 0 30 -8 12 -10 11 -10 -7z"/>
<path d="M1990 3631 c0 -25 6 -27 13 -6 4 8 2 17 -3 20 -6 4 -10 -3 -10 -14z"/>
<path d="M1970 3484 c0 -8 5 -12 10 -9 6 4 8 11 5 16 -9 14 -15 11 -15 -7z"/>
<path d="M7041 2853 c9 -11 10 -14 2 -10 -18 11 -48 -63 -31 -75 18 -11 33 -4
32 16 -1 9 2 16 6 16 5 0 11 8 13 18 4 13 5 11 6 -5 1 -26 19 -31 28 -7 6 17
-33 64 -55 64 -12 0 -12 -2 -1 -17z"/>
<path d="M1728 2723 c7 -3 16 -2 19 1 4 3 -2 6 -13 5 -11 0 -14 -3 -6 -6z"/>
<path d="M1888 2723 c6 -2 18 -2 25 0 6 3 1 5 -13 5 -14 0 -19 -2 -12 -5z"/>
<path d="M7790 5930 c0 -5 5 -10 11 -10 5 0 7 5 4 10 -3 6 -8 10 -11 10 -2 0
-4 -4 -4 -10z"/>
<path d="M6560 5914 c0 -8 5 -12 10 -9 6 4 8 11 5 16 -9 14 -15 11 -15 -7z"/>
<path d="M7687 5903 c-20 -19 -5 -43 33 -53 21 -6 42 -15 45 -20 3 -5 12 -7
20 -3 8 3 15 0 15 -6 0 -6 7 -11 15 -11 9 0 18 -6 21 -14 6 -14 54 -36 81 -36
11 0 10 5 -3 25 -10 15 -24 24 -33 22 -22 -5 -71 21 -97 50 -12 15 -26 21 -36
18 -11 -4 -18 0 -23 14 -6 21 -25 28 -38 14z"/>
<path d="M6167 5862 c-20 -21 -37 -41 -37 -46 0 -4 -10 -21 -21 -38 -14 -19
-18 -33 -12 -39 11 -11 45 -1 38 11 -2 4 4 15 15 25 11 10 20 23 20 28 0 6 8
20 19 31 21 24 37 66 24 66 -5 0 -26 -17 -46 -38z"/>
<path d="M7830 5883 c0 -5 9 -19 19 -32 22 -29 36 -13 15 17 -15 21 -34 30
-34 15z"/>
<path d="M7295 5870 c3 -5 8 -10 11 -10 2 0 4 5 4 10 0 6 -5 10 -11 10 -5 0
-7 -4 -4 -10z"/>
<path d="M7795 5870 c3 -5 8 -10 11 -10 2 0 4 5 4 10 0 6 -5 10 -11 10 -5 0
-7 -4 -4 -10z"/>
<path d="M6530 5820 c0 -5 -6 -10 -13 -10 -20 0 -60 -31 -50 -40 4 -4 20 -10
36 -14 22 -5 27 -3 27 13 0 11 5 23 10 26 6 3 10 13 10 21 0 8 -4 14 -10 14
-5 0 -10 -4 -10 -10z"/>
<path d="M6890 5820 c0 -5 11 -9 25 -8 14 1 25 6 25 10 0 4 -11 8 -25 8 -14 0
-25 -4 -25 -10z"/>
<path d="M6377 5793 c-4 -3 -7 -15 -7 -26 0 -16 3 -17 15 -7 8 7 15 19 15 26
0 15 -12 19 -23 7z"/>
<path d="M6960 5786 c0 -9 5 -16 10 -16 6 0 10 4 10 9 0 6 -4 13 -10 16 -5 3
-10 -1 -10 -9z"/>
<path d="M7412 5774 c-12 -8 -20 -20 -16 -25 4 -6 10 -6 19 1 17 14 40 4 53
-23 l11 -22 0 23 c1 12 -3 22 -8 22 -5 0 -11 9 -14 20 -6 24 -15 25 -45 4z"/>
<path d="M6770 5760 c-8 -16 -8 -20 4 -20 16 0 29 27 16 35 -5 3 -14 -4 -20
-15z"/>
<path d="M6422 5754 c-12 -13 -10 -19 13 -40 26 -24 75 -33 75 -13 0 6 -9 13
-21 16 -12 3 -18 11 -15 19 3 8 -1 14 -9 14 -8 0 -15 5 -15 10 0 14 -13 12
-28 -6z"/>
<path d="M5960 5729 c0 -5 4 -9 9 -9 5 0 16 -3 25 -6 9 -3 16 -2 16 4 0 5 -11
12 -25 14 -14 3 -25 1 -25 -3z"/>
<path d="M6530 5710 c0 -11 5 -20 10 -20 6 0 10 9 10 20 0 11 -4 20 -10 20 -5
0 -10 -9 -10 -20z"/>
<path d="M7955 5720 c3 -5 8 -10 11 -10 2 0 4 5 4 10 0 6 -5 10 -11 10 -5 0
-7 -4 -4 -10z"/>
<path d="M6669 5693 c-1 -5 -1 -12 0 -16 1 -4 -7 -10 -16 -14 -30 -11 -40 -43
-13 -43 8 0 50 61 50 74 0 9 -20 8 -21 -1z"/>
<path d="M8020 5681 c0 -6 5 -13 10 -16 6 -3 10 1 10 9 0 9 -4 16 -10 16 -5 0
-10 -4 -10 -9z"/>
<path d="M8100 5654 c0 -9 5 -14 12 -12 18 6 21 28 4 28 -9 0 -16 -7 -16 -16z"/>
<path d="M8110 5615 c0 -8 5 -15 10 -15 6 0 10 7 10 15 0 8 -4 15 -10 15 -5 0
-10 -7 -10 -15z"/>
<path d="M6160 5592 c0 -13 7 -25 15 -28 8 -4 15 -15 15 -26 0 -10 5 -16 10
-13 15 9 13 18 -15 55 -22 30 -25 32 -25 12z"/>
<path d="M6220 5590 c-9 -6 -10 -10 -3 -10 6 0 15 5 18 10 8 12 4 12 -15 0z"/>
<path d="M8477 5566 c-10 -26 -10 -26 31 -25 21 1 29 3 17 6 -11 3 -25 12 -31
21 -9 13 -12 13 -17 -2z"/>
<path d="M2060 5525 c-10 -13 -9 -15 8 -15 15 0 20 5 16 15 -4 8 -7 15 -9 15
-1 0 -8 -7 -15 -15z"/>
<path d="M4740 5465 c0 -8 4 -15 10 -15 5 0 7 7 4 15 -4 8 -8 15 -10 15 -2 0
-4 -7 -4 -15z"/>
<path d="M6150 4515 c0 -8 5 -15 10 -15 6 0 10 7 10 15 0 8 -4 15 -10 15 -5 0
-10 -7 -10 -15z"/>
<path d="M6302 4472 c-7 -5 -10 -16 -6 -25 8 -23 24 -21 24 2 0 11 8 22 18 24
14 4 14 5 -3 6 -11 0 -26 -3 -33 -7z"/>
<path d="M6073 4411 c-31 -26 -29 -30 12 -17 19 6 34 15 32 20 -6 17 -21 16
-44 -3z"/>
<path d="M7298 4343 c7 -3 16 -2 19 1 4 3 -2 6 -13 5 -11 0 -14 -3 -6 -6z"/>
<path d="M5890 4251 c0 -15 16 -22 34 -15 25 9 19 24 -9 24 -14 0 -25 -4 -25
-9z"/>
<path d="M7528 4233 c6 -2 18 -2 25 0 6 3 1 5 -13 5 -14 0 -19 -2 -12 -5z"/>
<path d="M2993 4190 c0 -25 2 -35 4 -22 2 12 2 32 0 45 -2 12 -4 2 -4 -23z"/>
<path d="M2859 4165 c42 -19 46 -19 27 0 -8 8 -25 15 -38 15 -20 -1 -18 -3 11
-15z"/>
<path d="M2530 4140 c0 -5 7 -10 15 -10 8 0 15 -8 15 -17 0 -15 2 -16 10 -3
17 26 11 40 -15 40 -14 0 -25 -4 -25 -10z"/>
<path d="M7610 4143 c0 -5 -13 -17 -29 -28 -16 -10 -27 -23 -25 -27 10 -15 37
-8 56 14 11 12 31 28 46 34 l27 12 -37 1 c-21 1 -38 -2 -38 -6z"/>
<path d="M2715 4103 c-3 -14 -4 -28 0 -31 3 -3 5 2 5 11 0 10 5 17 10 17 6 0
10 -6 10 -14 0 -18 20 -25 43 -17 15 6 12 11 -22 33 l-39 26 -7 -25z"/>
<path d="M3040 4120 c0 -5 4 -10 9 -10 6 0 13 5 16 10 3 6 -1 10 -9 10 -9 0
-16 -4 -16 -10z"/>
<path d="M7658 4114 c-26 -13 -38 -34 -20 -34 12 1 57 38 52 43 -3 3 -17 -1
-32 -9z"/>
<path d="M7430 4100 c0 -5 4 -10 9 -10 6 0 13 5 16 10 3 6 -1 10 -9 10 -9 0
-16 -4 -16 -10z"/>
<path d="M2641 4084 c0 -11 3 -14 6 -6 3 7 2 16 -1 19 -3 4 -6 -2 -5 -13z"/>
<path d="M7696 4083 c-4 -5 -12 -8 -17 -8 -5 0 -9 -3 -9 -7 0 -5 0 -12 0 -18
0 -19 29 -10 35 11 7 22 3 33 -9 22z"/>
<path d="M2825 4053 c-25 -14 -27 -18 -11 -21 10 -2 28 5 39 17 25 25 13 27
-28 4z"/>
<path d="M3368 4063 c7 -3 16 -2 19 1 4 3 -2 6 -13 5 -11 0 -14 -3 -6 -6z"/>
<path d="M7718 4049 c-35 -20 -19 -35 48 -48 37 -6 69 -10 71 -7 3 2 -10 18
-29 35 -34 32 -61 38 -90 20z"/>
<path d="M2932 4001 c-10 -6 -7 -10 12 -13 16 -3 25 -1 23 5 -5 15 -20 18 -35
8z"/>
<path d="M4458 3976 c-32 -17 -77 -65 -78 -83 0 -7 -7 -16 -16 -21 -17 -9 -16
-43 1 -49 6 -1 25 20 44 48 19 27 47 63 63 79 41 43 36 52 -14 26z"/>
<path d="M7686 3982 c-3 -6 -1 -14 5 -17 15 -10 25 3 12 16 -7 7 -13 7 -17 1z"/>
<path d="M3520 3970 c0 -5 5 -10 10 -10 6 0 10 5 10 10 0 6 -4 10 -10 10 -5 0
-10 -4 -10 -10z"/>
<path d="M4494 3941 c-14 -22 -24 -49 -22 -60 3 -19 4 -19 33 7 20 17 31 39
33 60 5 43 -12 41 -44 -7z"/>
<path d="M7800 3959 c0 -5 9 -9 20 -9 11 0 20 2 20 4 0 2 -9 6 -20 9 -11 3
-20 1 -20 -4z"/>
<path d="M3800 3950 c0 -5 5 -10 10 -10 6 0 10 5 10 10 0 6 -4 10 -10 10 -5 0
-10 -4 -10 -10z"/>
<path d="M7730 3951 c0 -5 9 -7 20 -4 11 3 20 7 20 9 0 2 -9 4 -20 4 -11 0
-20 -4 -20 -9z"/>
<path d="M3592 3924 c-11 -12 -9 -14 7 -14 23 0 36 16 18 23 -6 2 -18 -2 -25
-9z"/>
<path d="M7671 3931 c-7 -5 -3 -12 14 -21 14 -7 25 -17 25 -22 0 -4 7 -8 15
-8 8 0 15 5 15 10 0 6 -4 10 -8 10 -5 0 -17 9 -29 19 -11 10 -25 16 -32 12z"/>
<path d="M7815 3930 c-3 -5 -16 -11 -28 -11 -20 -1 -20 -2 -2 -6 11 -2 30 -9
42 -15 12 -6 29 -8 38 -4 15 5 14 9 -8 26 -29 23 -33 24 -42 10z"/>
<path d="M7590 3899 c-14 -26 -15 -25 43 -32 31 -4 46 -3 42 3 -3 6 -12 10
-19 10 -7 0 -22 9 -34 20 l-21 20 -11 -21z"/>
<path d="M3528 3903 c7 -3 16 -2 19 1 4 3 -2 6 -13 5 -11 0 -14 -3 -6 -6z"/>
<path d="M3587 3872 c-42 -19 -40 -32 4 -32 15 0 34 -7 43 -15 23 -24 46 -19
46 10 0 22 -3 24 -19 15 -27 -14 -41 -13 -41 5 0 8 6 15 14 15 8 0 18 5 21 10
9 15 -25 11 -68 -8z"/>
<path d="M3920 3880 c0 -5 5 -10 10 -10 6 0 10 5 10 10 0 6 -4 10 -10 10 -5 0
-10 -4 -10 -10z"/>
<path d="M7920 3879 c0 -7 -8 -18 -17 -25 -25 -18 -10 -27 28 -19 30 7 31 9
15 21 -10 7 -15 17 -11 23 3 6 1 11 -4 11 -6 0 -11 -5 -11 -11z"/>
<path d="M3175 3866 c-18 -13 -18 -14 3 -20 14 -5 22 -17 24 -38 4 -46 25 -46
30 -1 8 64 -16 89 -57 59z"/>
<path d="M3440 3865 c0 -9 -9 -15 -25 -15 -28 0 -32 -12 -10 -30 15 -12 59 -4
50 10 -3 4 2 13 10 20 12 10 18 10 30 0 8 -7 12 -16 9 -21 -3 -5 0 -9 5 -9 6
0 11 14 11 30 0 28 -2 30 -40 30 -29 0 -40 -4 -40 -15z"/>
<path d="M3040 3856 c0 -6 18 -17 40 -22 32 -9 40 -8 45 4 7 19 8 18 -42 25
-30 3 -43 1 -43 -7z"/>
<path d="M3760 3850 c0 -5 4 -10 9 -10 6 0 13 5 16 10 3 6 -1 10 -9 10 -9 0
-16 -4 -16 -10z"/>
<path d="M3810 3795 c-10 -13 -9 -15 9 -15 12 0 21 6 21 15 0 8 -4 15 -9 15
-5 0 -14 -7 -21 -15z"/>
<path d="M7560 3800 c0 -5 7 -10 16 -10 8 0 12 5 9 10 -3 6 -10 10 -16 10 -5
0 -9 -4 -9 -10z"/>
<path d="M3580 3793 c0 -5 7 -16 14 -25 10 -14 26 -18 67 -16 40 1 45 2 20 5
-19 3 -46 13 -59 24 -26 20 -42 24 -42 12z"/>
<path d="M3465 3748 c2 -25 8 -43 15 -43 7 0 13 18 15 43 3 35 0 42 -15 42
-15 0 -18 -7 -15 -42z"/>
<path d="M3140 3755 c-11 -13 -8 -15 20 -15 28 0 31 2 20 15 -7 8 -16 15 -20
15 -4 0 -13 -7 -20 -15z"/>
<path d="M7769 3726 c16 -19 44 -21 39 -3 -3 6 -15 14 -28 15 -21 3 -22 2 -11
-12z"/>
<path d="M3520 3720 c0 -5 7 -10 16 -10 8 0 12 5 9 10 -3 6 -10 10 -16 10 -5
0 -9 -4 -9 -10z"/>
<path d="M3420 3705 c0 -8 5 -15 10 -15 6 0 10 7 10 15 0 8 -4 15 -10 15 -5 0
-10 -7 -10 -15z"/>
<path d="M7838 3708 c9 -9 15 -9 24 0 9 9 7 12 -12 12 -19 0 -21 -3 -12 -12z"/>
<path d="M3365 3680 c-11 -17 42 -60 73 -60 16 0 35 -7 42 -15 7 -8 19 -15 27
-15 11 0 10 5 -4 25 -10 13 -26 25 -36 25 -27 0 -57 19 -57 35 0 17 -35 20
-45 5z"/>
<path d="M3680 3669 c0 -5 5 -7 10 -4 6 3 10 8 10 11 0 2 -4 4 -10 4 -5 0 -10
-5 -10 -11z"/>
<path d="M7710 3676 c0 -2 7 -6 15 -10 8 -3 15 -1 15 4 0 6 -7 10 -15 10 -8 0
-15 -2 -15 -4z"/>
<path d="M3305 3660 c3 -5 13 -10 21 -10 8 0 14 5 14 10 0 6 -9 10 -21 10 -11
0 -17 -4 -14 -10z"/>
<path d="M7878 3643 c6 -2 12 -13 12 -24 0 -21 15 -26 25 -8 7 11 -22 39 -40
38 -5 0 -4 -3 3 -6z"/>
<path d="M3200 3621 c0 -11 -3 -28 -6 -38 -3 -10 2 -7 10 7 18 29 20 50 6 50
-5 0 -10 -9 -10 -19z"/>
<path d="M3352 3610 c0 -14 2 -19 5 -12 2 6 2 18 0 25 -3 6 -5 1 -5 -13z"/>
<path d="M2800 3600 c0 -5 4 -10 9 -10 5 0 18 -3 28 -7 17 -6 17 -6 1 10 -18
19 -38 22 -38 7z"/>
<path d="M3040 3561 c0 -6 17 -11 39 -11 22 0 41 -5 44 -12 4 -10 7 -10 18 -1
18 18 6 25 -51 31 -33 3 -50 1 -50 -7z"/>
<path d="M2807 3543 c-10 -10 13 -33 33 -33 20 0 43 23 33 33 -3 4 -18 7 -33
7 -15 0 -30 -3 -33 -7z"/>
<path d="M3370 3513 c-13 -15 -12 -16 4 -10 10 4 24 7 32 7 8 0 14 5 14 10 0
16 -34 11 -50 -7z"/>
<path d="M3440 3520 c0 -5 5 -10 10 -10 6 0 10 5 10 10 0 6 -4 10 -10 10 -5 0
-10 -4 -10 -10z"/>
<path d="M7910 3493 c-13 -15 -12 -16 4 -10 10 4 20 7 22 7 2 0 4 5 4 10 0 15
-13 12 -30 -7z"/>
<path d="M3410 3470 c0 -5 7 -10 15 -10 8 0 15 5 15 10 0 6 -7 10 -15 10 -8 0
-15 -4 -15 -10z"/>
<path d="M7950 3450 c0 -11 2 -20 4 -20 2 0 6 9 9 20 3 11 1 20 -4 20 -5 0 -9
-9 -9 -20z"/>
<path d="M3507 3444 c-3 -3 1 -13 9 -21 8 -9 18 -12 21 -9 4 4 0 13 -8 21 -8
9 -18 13 -22 9z"/>
<path d="M6060 3430 c0 -5 5 -10 11 -10 5 0 7 5 4 10 -3 6 -8 10 -11 10 -2 0
-4 -4 -4 -10z"/>
<path d="M3448 3423 c7 -3 16 -2 19 1 4 3 -2 6 -13 5 -11 0 -14 -3 -6 -6z"/>
<path d="M7980 3361 c0 -5 7 -12 16 -15 14 -5 15 -4 4 9 -14 17 -20 19 -20 6z"/>
<path d="M7857 3313 c-12 -11 -8 -23 7 -23 7 0 19 7 26 15 10 12 9 15 -7 15
-11 0 -23 -3 -26 -7z"/>
<path d="M3900 3140 c0 -5 5 -10 10 -10 6 0 10 5 10 10 0 6 -4 10 -10 10 -5 0
-10 -4 -10 -10z"/>
<path d="M6002 3121 c-1 -25 3 -31 21 -31 56 1 65 53 11 58 -28 3 -31 0 -32
-27z m48 -1 c0 -5 -4 -10 -10 -10 -5 0 -10 5 -10 10 0 6 5 10 10 10 6 0 10 -4
10 -10z"/>
<path d="M3940 3103 c0 -5 5 -15 10 -23 8 -12 10 -11 10 8 0 12 -4 22 -10 22
-5 0 -10 -3 -10 -7z"/>
<path d="M7872 3001 c4 -13 18 -16 19 -4 0 4 -5 9 -11 12 -7 2 -11 -2 -8 -8z"/>
<path d="M7836 2945 c-9 -26 -7 -32 5 -12 6 10 9 21 6 23 -2 3 -7 -2 -11 -11z"/>
<path d="M4077 2913 c-10 -9 -9 -43 2 -43 5 0 11 6 14 13 6 17 -7 40 -16 30z"/>
<path d="M4131 2904 c0 -11 3 -14 6 -6 3 7 2 16 -1 19 -3 4 -6 -2 -5 -13z"/>
<path d="M9440 2913 c0 -5 -85 -10 -189 -11 -104 -2 -213 -7 -243 -12 l-53 -8
45 -2 c25 -2 62 -2 83 -1 23 1 37 -2 37 -10 0 -7 8 -9 23 -4 12 4 42 8 67 10
25 2 69 7 98 12 28 6 52 7 52 2 0 -4 -5 -9 -12 -11 -6 -2 23 -3 65 -3 45 1 82
7 91 15 13 10 16 10 16 -4 0 -9 8 -16 19 -16 33 0 51 11 51 31 0 17 -8 19 -75
19 -41 0 -75 -3 -75 -7z m37 -19 c-3 -3 -12 -4 -19 -1 -8 3 -5 6 6 6 11 1 17
-2 13 -5z"/>
<path d="M8760 2880 c-35 -5 -24 -7 50 -8 52 0 106 4 120 8 32 10 -105 10
-170 0z"/>
<path d="M8608 2873 c12 -2 30 -2 40 0 9 3 -1 5 -23 4 -22 0 -30 -2 -17 -4z"/>
<path d="M8160 2862 c0 -11 69 -27 78 -18 9 10 -4 17 -42 23 -22 3 -36 2 -36
-5z"/>
<path d="M8320 2852 c0 -14 6 -22 16 -22 14 0 15 3 3 18 -7 9 -15 19 -16 21
-2 2 -3 -5 -3 -17z"/>
<path d="M4401 2824 c0 -11 3 -14 6 -6 3 7 2 16 -1 19 -3 4 -6 -2 -5 -13z"/>
<path d="M9178 2813 c7 -3 16 -2 19 1 4 3 -2 6 -13 5 -11 0 -14 -3 -6 -6z"/>
<path d="M9073 2803 c9 -2 25 -2 35 0 9 3 1 5 -18 5 -19 0 -27 -2 -17 -5z"/>
<path d="M9385 2792 c-211 -18 -417 -20 -423 -3 -2 6 -12 11 -23 11 -12 0 -16
-5 -13 -15 4 -9 -2 -16 -18 -19 -66 -13 -111 -20 -188 -26 l-85 -7 105 0 c58
-1 149 2 203 6 53 3 97 3 97 -1 0 -4 7 -5 15 -2 8 4 12 10 9 15 -3 5 26 9 65
9 41 0 71 -4 71 -10 0 -5 9 -10 21 -10 15 0 19 5 15 15 -4 12 6 15 59 15 39 0
65 -4 65 -11 0 -6 8 -7 23 -3 12 5 52 8 89 9 37 0 70 4 74 8 4 4 16 7 26 7 10
0 18 7 18 15 0 8 -6 14 -12 14 -7 -1 -94 -9 -193 -17z"/>
<path d="M8565 2785 c-90 -14 -69 -17 90 -16 118 2 195 9 195 20 0 11 -202 8
-285 -4z"/>
<path d="M4880 2770 c0 -13 5 -18 15 -14 12 5 13 10 4 20 -15 19 -19 18 -19
-6z"/>
<path d="M4160 2755 c0 -8 5 -15 10 -15 6 0 10 7 10 15 0 8 -4 15 -10 15 -5 0
-10 -7 -10 -15z"/>
</g>
</svg>
